# Blender 4.1.1
# www.blender.org
mtllib ROCK_02.mtl
o ROCK_02
v 0.506187 0.073964 1.235053
v 0.514833 0.535353 1.320832
v -1.149752 0.079437 0.148324
v -1.471176 0.552830 0.510048
v 1.239189 0.067761 -0.560039
v 1.081188 0.352183 -0.561372
v -0.464090 0.297660 -1.298681
v -0.373646 0.850226 -0.708068
v -0.544590 -0.002056 0.989932
v 0.612499 0.289039 1.540150
v -0.730280 0.474019 1.374235
v -1.676323 0.293502 0.451276
v -0.901888 0.097487 -0.759069
v -0.629307 0.878281 0.125511
v -0.686007 0.540413 -1.300867
v 0.408758 0.200528 -1.084268
v 0.308807 0.719144 -0.876957
v 1.539349 0.264184 -0.684324
v 1.164089 0.039128 0.405678
v 0.900257 0.675560 0.607715
v -0.749701 0.270708 1.414431
v -1.333576 0.224437 -1.019496
v 0.869892 0.317678 -1.320662
v 1.431898 0.308282 0.647008
v 0.254986 -0.000189 -0.306628
v 0.533800 0.934360 0.427248
vn -0.0520 -0.8334 0.5502
vn -0.0392 0.4944 0.8684
vn -0.6935 0.3105 0.6501
vn -0.3536 -0.9019 0.2480
vn -0.3371 -0.9393 -0.0636
vn -0.5274 0.8197 -0.2234
vn -0.4950 0.8497 -0.1816
vn -0.1503 -0.7352 -0.6609
vn -0.0055 -0.5500 -0.8352
vn 0.0850 0.8309 -0.5498
vn 0.3628 0.9209 -0.1428
vn 0.1880 -0.9024 -0.3878
vn 0.6262 -0.7777 0.0550
vn 0.4103 0.9079 -0.0861
vn 0.5163 0.7230 0.4590
vn 0.4538 -0.7980 0.3965
vn -0.0702 -0.9966 -0.0424
vn 0.0033 -0.9571 -0.2898
vn 0.0361 -0.9914 -0.1257
vn 0.0383 -0.9984 0.0418
vn 0.0484 0.9925 -0.1122
vn -0.1672 0.9419 0.2914
vn 0.0793 0.9096 0.4078
vn 0.5348 0.8236 -0.1889
vt 0.873047 0.718750
vt 0.882812 0.683594
vt 0.927734 0.691406
vt 0.906250 0.738281
vt 0.816406 0.853516
vt 0.804688 0.863281
vt 0.792969 0.824219
vt 0.822266 0.810547
vt 0.947266 0.669922
vt 1.000000 0.693359
vt 0.984375 0.722656
vt 0.953125 0.761719
vt 1.000000 0.791016
vt 0.964844 0.800781
vt 0.681641 0.970703
vt 0.671875 0.929688
vt 0.695312 0.865234
vt 0.759766 0.970703
vt 0.750000 0.865234
vt 0.775391 0.916016
vt 0.794922 0.697266
vt 0.814453 0.669922
vt 0.849609 0.687500
vt 0.843750 0.701172
vt 0.873047 0.759766
vt 0.841797 0.746094
vt 0.910156 0.810547
vt 0.949219 0.810547
vt 0.953125 0.843750
vt 0.910156 0.894531
vt 0.947266 0.919922
vt 0.935547 0.931641
vt 0.857422 0.802734
vt 0.826172 0.796875
vt 0.900391 0.921875
vt 0.875000 0.947266
vt 0.835938 0.908203
vt 0.880859 0.888672
vt 0.859375 0.947266
vt 0.792969 0.910156
vt 0.855469 0.845703
vt 0.910156 0.789062
vt 0.792969 0.757812
vt 0.792969 0.810547
vt 0.873047 0.812500
vt 0.910156 0.878906
vt 0.792969 0.777344
vt 0.753906 0.818359
vt 0.708984 0.783203
vt 0.773438 0.750000
vt 0.759766 0.865234
vt 0.703125 0.861328
vt 0.671875 0.810547
vt 0.689453 0.775391
vt 0.671875 0.669922
s 0
usemtl ROCK_MAT
f 1/1/1 10/2/1 21/3/1 9/4/1
f 10/5/2 2/6/2 11/7/2 21/8/2
f 21/3/3 11/9/3 4/10/3 12/11/3
f 9/4/4 21/3/4 12/11/4 3/12/4
f 3/12/5 12/11/5 22/13/5 13/14/5
f 12/15/6 4/16/6 14/17/6 22/18/6
f 22/18/7 14/17/7 8/19/7 15/20/7
f 13/21/8 22/22/8 15/23/8 7/24/8
f 7/24/9 15/23/9 23/25/9 16/26/9
f 15/27/10 8/28/10 17/29/10 23/30/10
f 23/30/11 17/29/11 6/31/11 18/32/11
f 16/26/12 23/25/12 18/33/12 5/34/12
f 5/35/13 18/36/13 24/37/13 19/38/13
f 18/36/14 6/39/14 20/40/14 24/37/14
f 24/37/15 20/40/15 2/6/15 10/5/15
f 19/38/16 24/37/16 10/5/16 1/41/16
f 3/12/17 13/14/17 25/42/17 9/4/17
f 13/21/18 7/24/18 16/26/18 25/43/18
f 25/43/19 16/26/19 5/34/19 19/44/19
f 9/45/20 25/46/20 19/38/20 1/41/20
f 8/47/21 14/48/21 26/49/21 17/50/21
f 14/48/22 4/51/22 11/52/22 26/49/22
f 26/49/23 11/52/23 2/53/23 20/54/23
f 17/50/24 26/49/24 20/54/24 6/55/24
