# Blender 4.1.1
# www.blender.org
mtllib ROCK_05.mtl
o ROCK_05
v 0.335652 0.584311 -0.941399
v -1.148395 0.392203 -0.396968
v 0.845442 0.253956 0.331674
v -0.638598 0.061841 0.876100
v 0.440083 1.383366 -0.775867
v -1.177550 1.300215 -0.149669
v 0.823327 1.021943 0.539817
v -0.660729 0.827874 1.083742
v 0.721920 0.053989 -0.452223
v -0.450573 0.134141 -0.914621
v -1.002131 -0.169196 0.180252
v 0.170938 -0.268605 0.637423
v 1.213568 0.661898 0.461365
v -0.919035 0.385824 1.243719
v 0.190848 0.955934 1.120336
v 0.845660 1.582412 -0.105158
v -1.043689 1.291209 0.575860
v -0.491978 1.599074 -0.517900
v 0.605735 1.066702 -1.095623
v -1.541381 0.805460 -0.303608
v -0.143633 0.060477 -0.103932
v 0.314789 0.415269 1.270867
v -0.181684 1.356429 0.247598
v -0.641764 1.035126 -1.117848
v 1.016114 0.877535 -0.356327
v -1.343039 0.571854 0.509066
vn -0.1269 0.8720 0.4728
vn 0.1987 0.9141 0.3534
vn 0.0710 0.9969 0.0345
vn -0.2546 0.9547 0.1539
vn -0.6322 0.6206 -0.4638
vn 0.0309 0.7065 -0.7071
vn 0.0523 -0.3074 -0.9502
vn -0.5755 -0.3862 -0.7209
vn -0.1356 -0.8509 -0.5075
vn 0.0049 -0.8465 -0.5323
vn 0.1362 -0.9694 -0.2042
vn -0.0036 -0.9996 -0.0285
vn 0.0138 -0.7221 0.6916
vn 0.5853 -0.6392 0.4989
vn 0.6078 0.3305 0.7220
vn -0.0577 0.2528 0.9658
vn -0.8796 0.4400 0.1806
vn -0.8933 -0.4324 -0.1225
vn -0.7518 -0.4924 0.4385
vn -0.6932 0.3282 0.6417
vn 0.6755 -0.3753 -0.6348
vn 0.6644 0.6400 -0.3859
vn 0.8543 0.5133 0.0818
vn 0.8674 -0.4275 -0.2548
vt 0.447266 0.392578
vt 0.484375 0.380859
vt 0.490234 0.445312
vt 0.445312 0.443359
vt 0.529297 0.382812
vt 0.544922 0.431641
vt 0.546875 0.474609
vt 0.505859 0.492188
vt 0.587891 0.380859
vt 0.595703 0.339844
vt 0.650391 0.353516
vt 0.632812 0.382812
vt 0.343750 0.474609
vt 0.345703 0.431641
vt 0.400391 0.445312
vt 0.384766 0.492188
vt 0.361328 0.382812
vt 0.406250 0.380859
vt 0.443359 0.392578
vt 0.429688 0.445312
vt 0.445312 0.632812
vt 0.390625 0.646484
vt 0.384766 0.619141
vt 0.427734 0.603516
vt 0.388672 0.541016
vt 0.443359 0.554688
vt 0.345703 0.593750
vt 0.343750 0.542969
vt 0.595703 0.646484
vt 0.587891 0.605469
vt 0.632812 0.603516
vt 0.650391 0.632812
vt 0.404297 0.494141
vt 0.445312 0.511719
vt 0.462891 0.603516
vt 0.447266 0.554688
vt 0.501953 0.541016
vt 0.507812 0.605469
vt 0.486328 0.494141
vt 0.494141 0.339844
vt 0.546875 0.353516
vt 0.546875 0.542969
vt 0.544922 0.593750
vt 0.648438 0.431641
vt 0.593750 0.445312
vt 0.650391 0.474609
vt 0.609375 0.492188
vt 0.500000 0.646484
vt 0.548828 0.443359
vt 0.550781 0.392578
vt 0.550781 0.593750
vt 0.548828 0.542969
vt 0.593750 0.541016
vt 0.343750 0.353516
vt 0.396484 0.339844
vt 0.609375 0.494141
vt 0.650391 0.511719
vt 0.648438 0.554688
s 0
usemtl ROCK_MAT
f 1/1/1 10/2/1 21/3/1 9/4/1
f 10/2/2 2/5/2 11/6/2 21/3/2
f 21/3/3 11/6/3 4/7/3 12/8/3
f 9/9/4 21/10/4 12/11/4 3/12/4
f 3/13/5 12/14/5 22/15/5 13/16/5
f 12/14/6 4/17/6 14/18/6 22/15/6
f 22/15/7 14/18/7 8/19/7 15/20/7
f 13/21/8 22/22/8 15/23/8 7/24/8
f 7/24/9 15/23/9 23/25/9 16/26/9
f 15/23/10 8/27/10 17/28/10 23/25/10
f 23/29/11 17/30/11 6/31/11 18/32/11
f 16/26/12 23/25/12 18/33/12 5/34/12
f 5/35/13 18/36/13 24/37/13 19/38/13
f 18/36/14 6/34/14 20/39/14 24/37/14
f 24/40/15 20/41/15 2/5/15 10/2/15
f 19/38/16 24/37/16 10/42/16 1/43/16
f 3/12/17 13/44/17 25/45/17 9/9/17
f 13/44/18 7/46/18 16/47/18 25/45/18
f 25/48/19 16/21/19 5/35/19 19/38/19
f 9/9/20 25/45/20 19/49/20 1/50/20
f 8/51/21 14/52/21 26/53/21 17/30/21
f 14/18/22 4/17/22 11/54/22 26/55/22
f 26/53/23 11/56/23 2/57/23 20/58/23
f 17/30/24 26/53/24 20/58/24 6/31/24
