# Blender 4.1.1
# www.blender.org
mtllib LOG_01.mtl
o LOG_01
v 0.191620 1.309861 -0.810345
v 0.560617 0.923105 -0.810307
v 0.551687 0.371000 -0.810318
v 0.182817 -0.002814 -0.810307
v -0.398745 0.006205 -0.818974
v -0.764585 0.371673 -0.810520
v -0.767265 0.953828 -0.810307
v -0.375881 1.325864 -0.810307
v 0.119576 1.252614 -1.681557
v 0.436201 1.108798 -1.689167
v 0.533949 0.459437 -1.672226
v 0.382463 0.184415 -1.682758
v -0.260386 0.144562 -1.627426
v -0.575226 0.313339 -1.676868
v -0.720247 0.831323 -1.677429
v -0.486526 1.181347 -1.688183
v 0.560617 0.923106 0.389690
v 0.191631 1.309888 0.389690
v 0.551697 0.370997 0.389690
v 0.182819 -0.002813 0.389694
v -0.402058 -0.000663 0.389694
v -0.764755 0.371596 0.389694
v -0.767263 0.953828 0.389694
v -0.375879 1.325864 0.389694
v 0.366102 0.846801 1.762280
v 0.106043 1.119402 1.762280
v 0.359726 0.452203 1.762280
v 0.101192 0.190213 1.762280
v -0.319567 0.191760 1.762280
v -0.572643 0.451507 1.762280
v -0.574448 0.870418 1.762280
v -0.300476 1.130846 1.762280
v -0.570124 1.317814 -1.691589
v 0.142776 1.401586 -1.685764
v -0.878193 0.856445 -1.677452
v -0.698528 0.214854 -1.673630
v -0.292740 -0.003075 -1.623219
v 0.471268 0.044554 -1.679279
v 0.684971 0.432378 -1.672119
v 0.568144 1.208483 -1.692478
v 0.512360 0.904009 1.762280
v 0.169909 1.262977 1.762280
v 0.504080 0.391603 1.762280
v 0.161730 0.044674 1.762280
v -0.381088 0.046670 1.762280
v -0.717705 0.392159 1.762280
v -0.720032 0.932522 1.762280
v -0.356792 1.277804 1.762280
v -0.486124 1.184182 -1.586155
v 0.119978 1.255449 -1.579529
v -0.719845 0.834158 -1.575401
v -0.574823 0.316174 -1.574837
v -0.259985 0.147398 -1.525398
v 0.382866 0.187250 -1.580727
v 0.534351 0.462273 -1.570194
v 0.436604 1.111634 -1.587139
v 0.366100 0.846801 1.660210
v 0.106043 1.119402 1.660210
v 0.359724 0.452203 1.660210
v 0.101192 0.190213 1.660210
v -0.319567 0.191760 1.660210
v -0.572643 0.451507 1.660210
v -0.574448 0.870418 1.660210
v -0.300476 1.130846 1.660210
vn 0.5831 0.7970 0.1573
vn 0.9920 0.0821 0.0964
vn 0.7842 -0.6013 0.1533
vn 0.0281 -0.9995 -0.0161
vn -0.6036 -0.7971 0.0171
vn -0.9880 -0.1471 0.0472
vn 0.7118 -0.7024 -0.0000
vn -0.7618 0.6409 0.0943
vn -0.0530 0.9971 0.0548
vn 0.9993 -0.0161 0.0349
vn -1.0000 -0.0045 -0.0001
vn -0.0096 -1.0000 -0.0029
vn -0.6890 0.7248 -0.0000
vn 0.9999 -0.0162 -0.0000
vn -0.7115 -0.7026 -0.0031
vn 0.0282 0.9996 -0.0000
vn 0.7235 0.6903 -0.0000
vn -0.6885 0.7244 0.0349
vn -0.7158 -0.6974 0.0350
vn 0.7113 -0.7020 0.0352
vn 0.7231 0.6898 0.0350
vn 0.0281 0.9990 0.0346
vn -0.9994 -0.0043 0.0343
vn -0.0037 -0.9994 0.0345
vn -0.0642 0.9976 -0.0275
vn 0.0037 1.0000 -0.0000
vn 0.0123 -0.0241 -0.9996
vn -0.0044 -0.0277 -0.9996
vn -0.0097 -0.0065 -0.9999
vn 0.0906 -0.0873 -0.9921
vn -0.0763 -0.0416 -0.9962
vn 0.0242 0.0133 -0.9996
vn -0.0044 -0.0268 -0.9996
vn -0.0257 -0.0142 -0.9996
vn -0.0000 -0.0000 1.0000
vn -0.0039 -0.0278 -0.9996
vn 0.7162 0.6979 -0.0000
vn -0.8757 0.4827 -0.0100
vn 1.0000 0.0043 -0.0000
vn -0.9889 -0.1486 0.0080
vn 0.6890 -0.7248 -0.0000
vn -0.4129 -0.9104 0.0269
vn 0.1164 -0.9928 0.0271
vn -0.0281 -0.9996 -0.0000
vn -0.7236 -0.6903 -0.0000
vn 0.8318 -0.5550 0.0121
vn -0.9999 0.0162 -0.0000
vn 0.9629 0.2696 -0.0113
vn -0.7118 0.7024 -0.0000
vn 0.4755 0.8793 -0.0263
vt 0.044922 0.005859
vt 0.041016 0.031250
vt 0.025391 0.031250
vt 0.031250 0.003906
vt 0.007812 0.033203
vt 0.007812 0.007812
vt 0.007812 0.332031
vt 0.013672 0.304688
vt 0.029297 0.304688
vt 0.021484 0.332031
vt 0.046875 0.304688
vt 0.044922 0.330078
vt 0.062500 0.304688
vt 0.058594 0.332031
vt 0.080078 0.304688
vt 0.078125 0.330078
vt 0.013672 0.269531
vt 0.029297 0.269531
vt 0.082031 0.007812
vt 0.076172 0.033203
vt 0.058594 0.031250
vt 0.064453 0.005859
vt 0.011719 0.068359
vt 0.027344 0.068359
vt 0.029297 0.107422
vt 0.015625 0.109375
vt 0.062500 0.269531
vt 0.078125 0.269531
vt 0.046875 0.269531
vt 0.074219 0.068359
vt 0.058594 0.066406
vt 0.042969 0.068359
vt 0.072266 0.107422
vt 0.058594 0.105469
vt 0.046875 0.230469
vt 0.060547 0.230469
vt 0.017578 0.228516
vt 0.031250 0.230469
vt 0.042969 0.105469
vt 0.074219 0.228516
vt 0.018457 0.903795
vt 0.020410 0.938951
vt 0.014551 0.940904
vt 0.014551 0.901842
vt 0.018457 0.915514
vt 0.024316 0.917467
vt 0.024316 0.936998
vt 0.075098 0.940904
vt 0.075098 0.909654
vt 0.082910 0.905748
vt 0.082910 0.942858
vt 0.059473 0.895983
vt 0.061426 0.886217
vt 0.030176 0.899889
vt 0.026270 0.892076
vt 0.020410 0.915514
vt 0.012598 0.911608
vt 0.018457 0.948717
vt 0.010645 0.952623
vt 0.032129 0.958483
vt 0.030176 0.966295
vt 0.065332 0.956529
vt 0.071191 0.964342
vt 0.073145 0.913561
vt 0.057520 0.897936
vt 0.059473 0.890123
vt 0.080957 0.909654
vt 0.034082 0.899889
vt 0.030176 0.890123
vt 0.010645 0.911608
vt 0.012598 0.942858
vt 0.036035 0.952623
vt 0.032129 0.962389
vt 0.059473 0.952623
vt 0.063379 0.962389
vt 0.075098 0.936998
vt 0.082910 0.938951
vt 0.059473 0.894029
vt 0.055566 0.903795
vt 0.069238 0.915514
vt 0.069238 0.935045
vt 0.057520 0.948717
vt 0.037988 0.948717
vt 0.036035 0.903795
vt 0.030176 0.894029
vt 0.065332 0.895983
vt 0.067285 0.892076
vt 0.075098 0.911608
vt 0.079004 0.909654
vt 0.075098 0.942858
vt 0.079004 0.944811
vt 0.059473 0.958483
vt 0.061426 0.962389
vt 0.032129 0.952623
vt 0.028223 0.956529
s 0
usemtl MAT_TREE
f 34/1/1 1/2/1 2/3/1 40/4/1
f 40/4/2 2/3/2 3/5/2 39/6/2
f 39/7/3 3/8/3 4/9/3 38/10/3
f 38/10/4 4/9/4 5/11/4 37/12/4
f 37/12/5 5/11/5 6/13/5 36/14/5
f 36/14/6 6/13/6 7/15/6 35/16/6
f 4/9/7 3/8/7 19/17/7 20/18/7
f 35/19/8 7/20/8 8/21/8 33/22/8
f 33/22/9 8/21/9 1/2/9 34/1/9
f 19/23/10 17/24/10 41/25/10 43/26/10
f 7/15/11 6/13/11 22/27/11 23/28/11
f 5/11/12 4/9/12 20/18/12 21/29/12
f 8/21/13 7/20/13 23/30/13 24/31/13
f 3/5/14 2/3/14 17/24/14 19/23/14
f 6/13/15 5/11/15 21/29/15 22/27/15
f 1/2/16 8/21/16 24/31/16 18/32/16
f 2/3/17 1/2/17 18/32/17 17/24/17
f 24/31/18 23/30/18 47/33/18 48/34/18
f 22/27/19 21/29/19 45/35/19 46/36/19
f 20/18/20 19/17/20 43/37/20 44/38/20
f 17/24/21 18/32/21 42/39/21 41/25/21
f 18/32/22 24/31/22 48/34/22 42/39/22
f 23/28/23 22/27/23 46/36/23 47/40/23
f 21/29/24 20/18/24 44/38/24 45/35/24
f 12/41/25 13/42/25 53/43/25 54/44/25
f 29/42/26 28/45/26 60/46/26 61/47/26
f 9/48/27 16/49/27 33/50/27 34/51/27
f 16/49/28 15/52/28 35/53/28 33/50/28
f 15/52/29 14/54/29 36/55/29 35/53/29
f 14/54/30 13/56/30 37/57/30 36/55/30
f 13/56/31 12/58/31 38/59/31 37/57/31
f 12/58/32 11/60/32 39/61/32 38/59/32
f 11/60/33 10/62/33 40/63/33 39/61/33
f 10/62/34 9/48/34 34/51/34 40/63/34
f 26/64/35 25/65/35 41/66/35 42/67/35
f 25/65/35 27/68/35 43/69/35 41/66/35
f 27/68/35 28/45/35 44/70/35 43/69/35
f 28/45/35 29/42/35 45/71/35 44/70/35
f 29/42/35 30/72/35 46/73/35 45/71/35
f 30/72/35 31/74/35 47/75/35 46/73/35
f 31/74/35 32/76/35 48/77/35 47/75/35
f 32/76/35 26/64/35 42/67/35 48/77/35
f 49/49/36 50/48/36 56/62/36 55/60/36 54/58/36 53/56/36 52/54/36 51/78/36
f 57/79/35 58/80/35 64/81/35 63/82/35 62/83/35 61/47/35 60/46/35 59/84/35
f 30/72/37 29/42/37 61/47/37 62/83/37
f 11/85/38 12/41/38 54/44/38 55/69/38
f 31/74/39 30/72/39 62/83/39 63/82/39
f 10/86/40 11/85/40 55/69/40 56/87/40
f 32/76/41 31/74/41 63/82/41 64/81/41
f 9/88/42 10/86/42 56/87/42 50/89/42
f 16/90/43 9/88/43 50/89/43 49/91/43
f 26/64/44 32/76/44 64/81/44 58/80/44
f 25/65/45 26/64/45 58/80/45 57/79/45
f 15/92/46 16/90/46 49/91/46 51/93/46
f 27/68/47 25/65/47 57/79/47 59/84/47
f 14/94/48 15/92/48 51/93/48 52/95/48
f 28/45/49 27/68/49 59/84/49 60/46/49
f 13/42/50 14/94/50 52/95/50 53/43/50
