# Blender 4.1.1
# www.blender.org
mtllib LOG_02.mtl
o LOG_02
v 0.151651 0.636495 -1.509766
v 0.299097 0.227500 -1.509766
v 0.018620 -0.104690 -1.509766
v -0.409304 -0.027885 -1.509766
v -0.556749 0.381110 -1.509766
v -0.276272 0.713300 -1.509766
v 0.282993 0.653905 -1.862934
v 0.379847 0.122458 -1.862934
v -0.031975 -0.227141 -1.862934
v -0.540648 -0.045295 -1.862934
v -0.637499 0.486152 -1.862934
v -0.225677 0.835752 -1.862934
v 0.175327 0.309167 0.931675
v 0.019041 0.570138 0.931675
v 0.027462 0.043335 0.931675
v -0.276688 0.038473 0.931675
v -0.432974 0.299444 0.931675
v -0.285109 0.565276 0.931675
v 0.055584 0.307253 1.694706
v -0.039173 0.465479 1.694706
v -0.034067 0.146079 1.694706
v -0.218472 0.143132 1.694706
v -0.313229 0.301358 1.694706
v -0.223577 0.462532 1.694706
v -0.235744 0.890985 -1.862934
v 0.325794 0.690239 -1.862934
v -0.690365 0.505052 -1.862934
v -0.583447 -0.081629 -1.862934
v -0.021908 -0.282375 -1.862934
v 0.432713 0.103559 -1.862934
v 0.111719 0.308150 1.694706
v -0.011881 0.514543 1.694706
v -0.005222 0.097913 1.694706
v -0.245764 0.094068 1.694706
v -0.369364 0.300461 1.694706
v -0.252422 0.510698 1.694706
v -0.223577 0.462532 1.648102
v -0.034067 0.146079 1.648102
v -0.225677 0.835752 -1.816330
v 0.282993 0.653905 -1.816330
v -0.637499 0.486152 -1.816330
v -0.540648 -0.045295 -1.816330
v -0.031975 -0.227141 -1.816330
v 0.379847 0.122458 -1.816330
v 0.055584 0.307253 1.648102
v -0.039173 0.465479 1.648102
v -0.218473 0.143132 1.648102
v -0.313229 0.301358 1.648102
vn 0.9003 0.2300 0.3694
vn 0.6494 -0.6647 0.3694
vn -0.2510 -0.8947 0.3694
vn -0.9003 -0.2300 0.3694
vn -0.0977 -0.9941 0.0465
vn -0.6494 0.6647 0.3694
vn 0.2510 0.8947 0.3694
vn 0.8716 -0.4848 0.0720
vn 0.0977 0.9941 0.0465
vn -0.9098 -0.4125 0.0465
vn 0.8121 -0.5817 0.0465
vn -0.8121 0.5817 0.0465
vn 0.9098 0.4125 0.0465
vn -0.0160 0.9999 -0.0000
vn -0.8716 0.4848 0.0720
vn 0.0159 -0.9973 0.0720
vn 0.8557 0.5124 0.0720
vn -0.0159 0.9973 0.0720
vn -0.8557 -0.5124 0.0720
vn 0.6472 -0.7623 -0.0000
vn 0.0160 -0.9999 -0.0000
vn -0.0000 -0.0000 -1.0000
vn -0.0000 -0.0000 1.0000
vn -0.9838 -0.1793 -0.0000
vn 0.9838 0.1793 -0.0000
vn 0.8579 0.5138 -0.0000
vn -0.8579 -0.5138 -0.0000
vn 0.3366 0.9416 -0.0000
vn 0.8739 -0.4861 -0.0000
vn -0.3366 -0.9416 -0.0000
vn -0.8739 0.4861 -0.0000
vn -0.6472 0.7623 -0.0000
vt 0.093750 0.361328
vt 0.095703 0.386719
vt 0.066406 0.386719
vt 0.058594 0.363281
vt 0.042969 0.394531
vt 0.029297 0.376953
vt 0.125000 0.373047
vt 0.119141 0.392578
vt 0.111328 0.533203
vt 0.093750 0.531250
vt 0.060547 0.533203
vt 0.076172 0.531250
vt 0.080078 0.562500
vt 0.068359 0.572266
vt 0.216797 0.634766
vt 0.216797 0.609375
vt 0.222656 0.611328
vt 0.220703 0.632812
vt 0.101562 0.572266
vt 0.089844 0.564453
vt 0.212891 0.607422
vt 0.240234 0.591797
vt 0.240234 0.593750
vt 0.214844 0.607422
vt 0.263672 0.609375
vt 0.261719 0.634766
vt 0.257812 0.632812
vt 0.257812 0.611328
vt 0.267578 0.607422
vt 0.240234 0.587891
vt 0.269531 0.605469
vt 0.208984 0.605469
vt 0.212891 0.638672
vt 0.210938 0.640625
vt 0.240234 0.654297
vt 0.240234 0.656250
vt 0.267578 0.638672
vt 0.269531 0.638672
vt 0.240234 0.597656
vt 0.240234 0.589844
vt 0.271484 0.605469
vt 0.210938 0.605469
vt 0.208984 0.640625
vt 0.240234 0.648438
vt 0.240234 0.642578
vt 0.240234 0.601562
vt 0.220703 0.611328
vt 0.265625 0.607422
vt 0.265625 0.636719
vt 0.240234 0.650391
vt 0.214844 0.636719
s 0
usemtl MAT_TREE
f 26/1/1 1/2/1 2/3/1 30/4/1
f 30/4/2 2/3/2 3/5/2 29/6/2
f 29/7/3 3/8/3 4/2/3 28/1/3
f 28/1/4 4/2/4 5/3/4 27/4/4
f 4/2/5 3/8/5 15/9/5 16/10/5
f 27/4/6 5/3/6 6/5/6 25/6/6
f 25/7/7 6/8/7 1/2/7 26/1/7
f 15/11/8 13/12/8 31/13/8 33/14/8
f 1/2/9 6/8/9 18/9/9 14/10/9
f 5/3/10 4/2/10 16/10/10 17/12/10
f 3/5/11 2/3/11 13/12/11 15/11/11
f 6/5/12 5/3/12 17/12/12 18/11/12
f 2/3/13 1/2/13 14/10/13 13/12/13
f 22/15/14 21/16/14 38/17/14 47/18/14
f 18/11/15 17/12/15 35/13/15 36/14/15
f 16/10/16 15/9/16 33/19/16 34/20/16
f 13/12/17 14/10/17 32/20/17 31/13/17
f 14/10/18 18/9/18 36/19/18 32/20/18
f 17/12/19 16/10/19 34/20/19 35/13/19
f 11/21/20 12/22/20 39/23/20 41/24/20
f 20/25/21 24/26/21 37/27/21 46/28/21
f 7/29/22 12/22/22 25/30/22 26/31/22
f 12/22/22 11/21/22 27/32/22 25/30/22
f 11/21/22 10/33/22 28/34/22 27/32/22
f 10/33/22 9/35/22 29/36/22 28/34/22
f 9/35/22 8/37/22 30/38/22 29/36/22
f 8/37/22 7/29/22 26/31/22 30/38/22
f 20/25/23 19/39/23 31/40/23 32/41/23
f 19/39/23 21/16/23 33/42/23 31/40/23
f 21/16/23 22/15/23 34/43/23 33/42/23
f 22/15/23 23/44/23 35/36/23 34/43/23
f 23/44/23 24/26/23 36/38/23 35/36/23
f 24/26/23 20/25/23 32/41/23 36/38/23
f 38/17/23 37/27/23 48/45/23 47/18/23
f 45/46/23 46/28/23 37/27/23 38/47/23
f 39/23/22 40/48/22 44/49/22 43/50/22 42/51/22 41/24/22
f 7/29/24 8/37/24 44/49/24 40/48/24
f 10/33/25 11/21/25 41/24/25 42/51/25
f 23/44/26 22/15/26 47/18/26 48/45/26
f 19/39/27 20/25/27 46/28/27 45/46/27
f 9/35/28 10/33/28 42/51/28 43/50/28
f 24/26/29 23/44/29 48/45/29 37/27/29
f 12/22/30 7/29/30 40/48/30 39/23/30
f 21/16/31 19/39/31 45/46/31 38/47/31
f 8/37/32 9/35/32 43/50/32 44/49/32
