# Blender 4.1.1
# www.blender.org
mtllib STUMP_02.mtl
o STUMP_02
v 0.267811 0.711706 -0.752502
v 0.086943 1.102417 -0.493380
v 0.413072 1.102417 -0.096521
v 0.727914 0.711705 -0.069448
v 0.232448 1.102417 0.384342
v 0.366423 0.711705 0.670540
v -0.274304 1.102417 0.468350
v -0.455171 0.711705 0.727474
v -0.600433 1.102417 0.071493
v -0.915275 0.711705 0.044419
v -0.419809 1.102417 -0.409371
v -0.553784 0.711705 -0.695569
v -0.319634 -0.000096 -0.858140
v 0.525676 -0.000096 -0.631009
v 0.751628 -0.000096 0.214615
v 0.132274 -0.000096 0.833111
v -0.713036 -0.000096 0.605981
v -0.938989 -0.000096 -0.239644
v -0.275038 -0.000501 1.538141
v -0.500861 -0.000501 1.494678
v 0.390151 0.557874 -0.807318
v 0.235849 0.557874 -0.882696
v 0.836555 0.557874 0.009094
v 0.824684 0.557875 -0.162225
v 1.339906 -0.000501 -0.630783
v 1.415177 -0.000501 -0.413483
v 0.352724 0.557875 0.803898
v 0.495154 0.557874 0.707956
v 0.087678 -0.000502 -1.563170
v 0.313501 -0.000501 -1.519707
v -0.577511 0.557874 0.782289
v -0.423210 0.557874 0.857667
v 1.158549 -0.000501 0.919873
v 1.007996 -0.000501 1.093710
v -1.023915 0.557874 -0.034122
v -1.012045 0.557875 0.137196
v -1.527266 -0.000501 0.605753
v -1.602537 -0.000501 0.388453
v -0.540085 0.557875 -0.828927
v -0.682514 0.557874 -0.732985
v -1.345909 -0.000502 -0.944902
v -1.195356 -0.000502 -1.118740
v -0.472299 1.097377 -0.473246
v 0.116015 1.097376 -0.570774
v -0.681994 1.097376 0.085013
v -0.303375 1.097376 0.545745
v 0.284938 1.097376 0.448216
v 0.494633 1.097376 -0.110043
v -0.419809 0.999542 -0.409371
v 0.086943 0.999541 -0.493380
v -0.600433 0.999542 0.071493
v -0.274304 0.999541 0.468350
v 0.232448 0.999542 0.384342
v 0.413072 0.999542 -0.096521
vn -0.6629 0.6431 -0.3834
vn 0.6786 0.1607 0.7168
vn -0.0970 0.4549 -0.8853
vn -0.9600 0.1607 0.2293
vn -0.8151 0.4549 -0.3586
vn 0.2814 0.1607 -0.9460
vn -0.7182 0.4549 0.5266
vn -0.6786 0.1607 -0.7167
vn 0.0970 0.4549 0.8853
vn -0.7884 0.3106 0.5310
vn 0.8151 0.4549 0.3586
vn 0.6629 0.6431 0.3834
vn 0.7182 0.4549 -0.5266
vn 0.7884 0.3106 -0.5310
vn -0.2814 0.1607 0.9460
vn 0.6635 0.6431 -0.3824
vn 0.9600 0.1607 -0.2293
vn -0.0005 0.6431 0.7658
vn -0.6635 0.6431 0.3824
vn 0.0005 0.6431 -0.7658
vn 0.0657 0.3106 0.9483
vn 0.8541 0.3106 0.4172
vn -0.0657 0.3106 -0.9483
vn -0.8541 0.3106 -0.4172
vn 0.3648 0.5562 -0.7467
vn 0.8291 0.5562 -0.0574
vn 0.4643 0.5562 0.6893
vn -0.3648 0.5562 0.7467
vn -0.8291 0.5562 0.0574
vn -0.4643 0.5562 -0.6893
vn -0.6465 0.7490 0.1450
vn -0.4488 0.7490 -0.4874
vn 0.1977 0.7490 -0.6324
vn 0.6465 0.7490 -0.1450
vn 0.4488 0.7490 0.4874
vn -0.1977 0.7490 0.6324
vn -0.0004 -1.0000 -0.0004
vn -0.7726 -0.0000 0.6349
vn 0.0001 -1.0000 -0.0005
vn -0.0000 -1.0000 -0.0000
vn -0.0005 -1.0000 0.0001
vn 0.0004 -1.0000 0.0004
vn 0.0005 -1.0000 -0.0001
vn -0.0001 -1.0000 0.0005
vn -0.0115 0.9975 -0.0693
vn -0.0657 0.9975 -0.0247
vn -0.0543 0.9975 0.0446
vn 0.0115 0.9975 0.0693
vn 0.0657 0.9975 0.0247
vn 0.0543 0.9975 -0.0446
vn -0.0000 1.0000 -0.0000
vn -0.1635 -0.0000 -0.9865
vn 0.9361 -0.0000 0.3516
vn -0.9361 -0.0000 -0.3516
vn 0.7726 -0.0000 -0.6349
vn 0.1635 -0.0000 0.9865
vt 0.046875 0.634766
vt 0.009766 0.634766
vt 0.023438 0.603516
vt 0.025391 0.595703
vt 0.052734 0.585938
vt 0.052734 0.628906
vt 0.136719 0.351562
vt 0.125000 0.373047
vt 0.093750 0.361328
vt 0.093750 0.337891
vt 0.078125 0.626953
vt 0.054688 0.634766
vt 0.052734 0.595703
vt 0.048828 0.341797
vt 0.058594 0.363281
vt 0.029297 0.376953
vt 0.009766 0.359375
vt 0.021484 0.617188
vt 0.025391 0.613281
vt 0.042969 0.634766
vt 0.037109 0.638672
vt 0.095703 0.585938
vt 0.082031 0.619141
vt 0.058594 0.585938
vt 0.083984 0.603516
vt 0.078125 0.607422
vt 0.062500 0.585938
vt 0.068359 0.582031
vt 0.009766 0.585938
vt 0.031250 0.585938
vt 0.037109 0.589844
vt 0.019531 0.611328
vt 0.052734 0.560547
vt 0.062500 0.578125
vt 0.037109 0.583984
vt 0.093750 0.636719
vt 0.074219 0.634766
vt 0.066406 0.632812
vt 0.083984 0.611328
vt 0.050781 0.660156
vt 0.042969 0.640625
vt 0.068359 0.640625
vt 0.222656 0.601562
vt 0.261719 0.611328
vt 0.261719 0.623047
vt 0.222656 0.644531
vt 0.265625 0.607422
vt 0.263672 0.634766
vt 0.259766 0.632812
vt 0.259766 0.609375
vt 0.240234 0.587891
vt 0.267578 0.605469
vt 0.267578 0.638672
vt 0.238281 0.656250
vt 0.210938 0.638672
vt 0.208984 0.603516
vt 0.240234 0.650391
vt 0.240234 0.654297
vt 0.214844 0.636719
vt 0.210938 0.640625
vt 0.214844 0.609375
vt 0.210938 0.605469
vt 0.238281 0.593750
vt 0.238281 0.589844
vt 0.269531 0.603516
vt 0.240234 0.646484
vt 0.218750 0.634766
vt 0.218750 0.611328
vt 0.240234 0.597656
s 0
usemtl MAT_TREE
f 29/1/1 13/2/1 22/3/1
f 23/4/2 15/5/2 26/6/2
f 12/7/3 43/8/3 44/9/3 1/10/3
f 31/11/4 17/12/4 20/13/4
f 10/14/5 45/15/5 43/16/5 12/17/5
f 39/11/6 13/12/6 42/13/6
f 8/10/7 46/9/7 45/15/7 10/14/7
f 35/11/8 18/12/8 38/13/8
f 6/7/9 47/8/9 46/9/9 8/10/9
f 17/2/10 31/18/10 8/19/10 10/20/10 36/21/10
f 4/14/11 48/15/11 47/16/11 6/17/11
f 16/22/12 32/23/12 19/24/12
f 1/10/13 44/9/13 48/15/13 4/14/13
f 14/22/14 21/25/14 1/26/14 4/27/14 24/28/14
f 27/4/15 16/5/15 34/6/15
f 15/2/16 28/3/16 33/1/16
f 14/5/17 30/6/17 21/4/17
f 17/22/18 36/23/18 37/24/18
f 18/22/19 40/23/19 41/24/19
f 14/2/20 24/3/20 25/1/20
f 16/29/21 27/30/21 6/31/21 8/19/21 32/32/21
f 15/33/22 23/34/22 4/27/22 6/31/22 28/35/22
f 13/36/23 39/37/23 12/38/23 1/26/23 22/39/23
f 18/40/24 35/41/24 10/20/24 12/38/24 40/42/24
f 21/25/25 22/39/25 1/26/25
f 23/34/26 24/28/26 4/27/26
f 27/30/27 28/35/27 6/31/27
f 31/18/28 32/32/28 8/19/28
f 35/41/29 36/21/29 10/20/29
f 39/37/30 40/42/30 12/38/30
f 35/11/31 38/13/31 37/24/31 36/23/31
f 39/11/32 42/13/32 41/24/32 40/23/32
f 29/1/33 22/3/33 21/4/33 30/6/33
f 23/4/34 26/6/34 25/1/34 24/3/34
f 27/4/35 34/6/35 33/1/35 28/3/35
f 31/11/36 20/13/36 19/24/36 32/23/36
f 15/43/37 33/44/37 34/45/37 16/46/37
f 3/47/38 2/48/38 50/49/38 54/50/38
f 17/46/39 16/43/39 19/44/39 20/45/39
f 18/51/40 13/52/40 14/53/40 15/54/40 16/55/40 17/56/40
f 15/46/41 14/43/41 25/44/41 26/45/41
f 42/45/42 13/46/42 18/43/42 41/44/42
f 38/45/43 18/46/43 17/43/43 37/44/43
f 13/43/44 29/44/44 30/45/44 14/46/44
f 11/57/45 2/48/45 44/53/45 43/58/45
f 9/59/46 11/57/46 43/58/46 45/60/46
f 7/61/47 9/59/47 45/60/47 46/62/47
f 5/63/48 7/61/48 46/62/48 47/64/48
f 3/47/49 5/63/49 47/64/49 48/65/49
f 2/48/50 3/47/50 48/65/50 44/53/50
f 49/66/51 51/67/51 52/68/51 53/69/51 54/50/51 50/49/51
f 7/61/52 5/63/52 53/69/52 52/68/52
f 11/57/53 9/59/53 51/67/53 49/66/53
f 5/63/54 3/47/54 54/50/54 53/69/54
f 9/59/55 7/61/55 52/68/55 51/67/55
f 2/48/56 11/57/56 49/66/56 50/49/56
