# Blender 4.1.1
# www.blender.org
mtllib STUMP_04.mtl
o STUMP_04
v 0.044608 -0.000097 -0.912075
v 0.860564 -0.000097 -0.440983
v 0.860565 -0.000097 0.501204
v 0.044610 -0.000097 0.972298
v -0.771348 -0.000097 0.501205
v -0.771348 -0.000097 -0.440981
v 0.044608 0.654449 -0.400835
v 0.417819 0.654449 -0.185362
v 0.417819 0.654449 0.245584
v 0.044609 0.654449 0.461058
v -0.328602 0.654449 0.245584
v -0.328602 0.654449 -0.185362
v 0.358778 -0.000097 -0.514048
v 0.672950 -0.000097 0.030111
v 0.358780 -0.000097 0.574270
v -0.269562 -0.000097 0.574270
v -0.583733 -0.000097 0.030111
v -0.269563 -0.000097 -0.514048
v -0.443795 0.654449 -0.251867
v 0.044608 0.654449 -0.533848
v -0.443794 0.654449 0.312092
v 0.044609 0.654449 0.594070
v 0.533011 0.654449 0.312090
v 0.533011 0.654449 -0.251869
v -0.328602 0.561655 -0.185362
v 0.044608 0.561655 -0.400835
v -0.328602 0.561655 0.245584
v 0.044609 0.561655 0.461058
v 0.417819 0.561655 0.245584
v 0.417819 0.561655 -0.185362
vn -0.0000 -1.0000 -0.0000
vn -0.4761 0.3057 -0.8246
vn -0.9521 0.3057 -0.0000
vn -0.4761 0.3057 0.8246
vn 0.4761 0.3057 0.8246
vn 0.9521 0.3057 -0.0000
vn 0.4761 0.3057 -0.8246
vn 1.0000 -0.0000 -0.0000
vn -0.0000 1.0000 -0.0000
vn -1.0000 -0.0000 -0.0000
vn 0.5000 -0.0000 -0.8660
vn 0.5000 -0.0000 0.8660
vn -0.5000 -0.0000 0.8660
vn -0.5000 -0.0000 -0.8660
vt 0.382812 0.722656
vt 0.400391 0.742188
vt 0.423828 0.744141
vt 0.417969 0.767578
vt 0.427734 0.789062
vt 0.404297 0.794922
vt 0.390625 0.814453
vt 0.380859 0.027344
vt 0.376953 0.050781
vt 0.345703 0.048828
vt 0.343750 0.000000
vt 0.369141 0.015625
vt 0.402344 0.027344
vt 0.406250 0.050781
vt 0.392578 0.025391
vt 0.437500 0.001953
vt 0.437500 0.048828
vt 0.416016 0.015625
vt 0.382812 0.029297
vt 0.378906 0.050781
vt 0.347656 0.048828
vt 0.347656 0.003906
vt 0.404297 0.027344
vt 0.408203 0.050781
vt 0.441406 0.001953
vt 0.439453 0.048828
vt 0.416016 0.785156
vt 0.386719 0.804688
vt 0.386719 0.798828
vt 0.410156 0.783203
vt 0.369141 0.744141
vt 0.373047 0.796875
vt 0.347656 0.794922
vt 0.355469 0.771484
vt 0.345703 0.750000
vt 0.416016 0.750000
vt 0.425781 0.744141
vt 0.425781 0.791016
vt 0.386719 0.814453
vt 0.353516 0.789062
vt 0.343750 0.794922
vt 0.353516 0.751953
vt 0.343750 0.746094
vt 0.382812 0.734375
vt 0.359375 0.785156
vt 0.359375 0.755859
vt 0.384766 0.740234
vt 0.410156 0.753906
s 0
usemtl MAT_TREE
f 1/1/1 13/2/1 2/3/1 14/4/1 3/5/1 15/6/1 4/7/1
f 6/8/2 19/9/2 20/10/2 1/11/2 18/12/2
f 5/13/3 21/14/3 19/9/3 6/8/3 17/15/3
f 4/16/4 22/17/4 21/14/4 5/13/4 16/18/4
f 3/19/5 23/20/5 22/21/5 4/22/5 15/12/5
f 2/23/6 24/24/6 23/20/6 3/19/6 14/15/6
f 1/25/7 20/26/7 24/24/7 2/23/7 13/18/7
f 12/27/8 11/28/8 27/29/8 25/30/8
f 18/31/1 1/1/1 4/7/1 16/32/1 5/33/1 17/34/1 6/35/1
f 12/27/9 7/36/9 20/37/9 19/38/9
f 11/28/9 12/27/9 19/38/9 21/39/9
f 10/40/9 11/28/9 21/39/9 22/41/9
f 9/42/9 10/40/9 22/41/9 23/43/9
f 8/44/9 9/42/9 23/43/9 24/1/9
f 7/36/9 8/44/9 24/1/9 20/37/9
f 25/30/9 27/29/9 28/45/9 29/46/9 30/47/9 26/48/9
f 9/42/10 8/44/10 30/47/10 29/46/10
f 11/28/11 10/40/11 28/45/11 27/29/11
f 7/36/12 12/27/12 25/30/12 26/48/12
f 8/44/13 7/36/13 26/48/13 30/47/13
f 10/40/14 9/42/14 29/46/14 28/45/14
