# Blender 4.1.1
# www.blender.org
mtllib GRASS_01.mtl
o GRASS_01
v 0.124823 -0.188458 0.008400
v -0.012794 -0.224025 0.068945
v 0.128921 -0.080290 0.071835
v 0.202791 -0.160833 -0.000967
v 0.210382 -0.123037 0.017973
v 0.298943 -0.126630 -0.014568
v 0.376015 -0.098344 -0.024828
v 0.281490 0.006489 0.091038
v 0.421360 -0.084515 -0.011660
v 0.394562 -0.041920 0.032560
v 0.558294 -0.041604 0.029736
v 0.454695 0.059120 0.141397
v 0.609850 -0.021878 0.111763
v 0.586834 0.007375 0.150396
v 0.660355 -0.000574 0.197674
v 0.712885 0.022175 0.289116
v 0.607281 0.040886 0.300741
v 0.529249 0.052358 0.262218
v 0.505274 0.059477 0.314014
v 0.397179 0.081211 0.335264
v 0.295324 0.033097 0.219397
v 0.255125 0.038300 0.293856
v 0.207964 0.024471 0.279917
v 0.153452 -0.021934 0.243929
v 0.122976 -0.060787 0.170902
v 0.087761 -0.078641 0.199669
v 0.034857 -0.124780 0.163002
v -0.082495 -0.086735 0.069712
v 0.004740 -0.063725 0.188751
v -0.461618 0.158466 -0.061131
v -0.104403 0.267100 0.465822
v -1.419895 0.351900 1.032333
v -0.836252 0.405200 0.335135
v -0.677444 0.472617 0.587181
v -1.038097 0.461817 0.795031
v -1.132107 0.427750 0.678080
v -0.032887 -0.067777 0.123861
v -0.207579 0.332055 0.120243
v -0.732618 0.482791 0.429749
v -1.053863 0.474687 0.701853
v 0.071766 -0.148239 -0.155190
v 0.041836 -0.238317 -0.011618
v 0.174845 -0.067141 -0.097803
v 0.118803 -0.103027 -0.227272
v 0.156324 -0.073062 -0.215183
v 0.173325 -0.047654 -0.319416
v 0.215441 -0.002510 -0.393234
v 0.317505 0.031889 -0.221968
v 0.257664 0.012422 -0.430956
v 0.304672 0.027567 -0.377174
v 0.385405 0.058686 -0.542618
v 0.477173 0.088326 -0.368071
v 0.499163 0.048384 -0.560883
v 0.534834 0.056211 -0.513805
v 0.614082 0.041322 -0.570875
v 0.735037 0.034748 -0.578892
v 0.699894 0.029107 -0.462830
v 0.627939 0.042958 -0.396580
v 0.667242 0.024416 -0.348307
v 0.636322 0.022503 -0.217165
v 0.457294 0.005466 -0.177326
v 0.503344 -0.023761 -0.102892
v 0.457439 -0.040900 -0.072628
v 0.376068 -0.083117 -0.051611
v 0.275097 -0.094735 -0.056553
v 0.275207 -0.133212 -0.020060
v 0.193354 -0.172521 0.006628
v -0.171635 -0.097166 -0.193398
v -0.044031 -0.226377 -0.127516
v -0.053423 -0.014914 -0.288391
v -0.219255 -0.031499 -0.265675
v -0.184687 0.000195 -0.303810
v -0.281996 0.048099 -0.354111
v -0.334915 0.112007 -0.422516
v -0.109266 0.117892 -0.488213
v -0.357460 0.135047 -0.481701
v -0.278467 0.141691 -0.520771
v -0.428583 0.208233 -0.654413
v -0.204285 0.207123 -0.711987
v -0.414097 0.200726 -0.789986
v -0.351389 0.200474 -0.816875
v -0.393587 0.196297 -0.920145
v -0.369661 0.192662 -1.055202
v -0.255156 0.163384 -0.985474
v -0.201193 0.164764 -0.887751
v -0.142239 0.136144 -0.917349
v -0.014164 0.111476 -0.840622
v -0.026268 0.082138 -0.632494
v 0.058311 0.038641 -0.657782
v 0.082624 0.014831 -0.595226
v 0.076616 -0.035014 -0.497084
v 0.029718 -0.049222 -0.387131
v 0.062313 -0.097074 -0.374231
v 0.049183 -0.149454 -0.280775
v -0.142292 -0.056074 0.190447
v -0.054539 -0.089877 0.065548
v -0.203876 0.063436 0.123606
v -0.212629 -0.027470 0.238140
v -0.239134 0.015651 0.221138
v -0.301693 0.009390 0.296980
v -0.372751 0.036538 0.341637
v -0.370888 0.147676 0.165695
v -0.424520 0.047959 0.352093
v -0.433659 0.092244 0.286032
v -0.580280 0.083675 0.388912
v -0.570028 0.191032 0.211401
v -0.682507 0.095975 0.340595
v -0.689596 0.126480 0.289053
v -0.784746 0.110552 0.293913
v -0.891779 0.126435 0.245077
v -0.806307 0.151902 0.166706
v -0.712990 0.171344 0.151041
v -0.724186 0.177113 0.091110
v -0.638283 0.206163 0.013359
v -0.467834 0.167062 0.057295
v -0.475647 0.170447 -0.021641
v -0.421284 0.159026 -0.032431
v -0.342831 0.113808 -0.025278
v -0.263760 0.078070 0.027275
v -0.245750 0.058404 -0.013735
v -0.168055 0.013293 -0.002811
v 0.144281 0.002989 0.200464
v 0.101492 -0.050271 0.095926
v 0.036999 0.033973 0.235418
v 0.145067 0.024195 0.272093
v 0.110672 0.035175 0.287073
v 0.148853 0.047245 0.353817
v 0.151691 0.065391 0.418903
v -0.006659 0.059794 0.369013
v 0.142790 0.062170 0.459423
v 0.080719 0.058245 0.446743
v 0.117609 0.053747 0.584202
v -0.038332 0.048445 0.527151
v 0.062490 0.010053 0.640657
v 0.015459 0.005433 0.631491
v 0.006901 -0.030140 0.699499
v -0.051716 -0.071438 0.761671
v -0.093796 -0.062940 0.677095
v -0.093792 -0.030153 0.607183
v -0.135008 -0.054306 0.596394
v -0.179773 -0.043413 0.515150
v -0.100674 -0.001101 0.403990
v -0.153309 -0.034989 0.386883
v -0.144098 -0.031768 0.345085
v -0.103004 -0.035581 0.289368
v -0.038994 -0.014071 0.248096
v -0.051760 -0.039315 0.222479
v -0.009981 -0.042085 0.169786
v 0.008440 -0.056917 0.053707
v -0.054504 -0.084508 0.171535
v -0.166367 0.162808 -0.273014
v -0.438009 0.041334 0.229851
v -1.433458 -0.223080 -0.579723
v -0.702093 0.155810 -0.387726
v -0.834595 0.106896 -0.125175
v -1.152134 -0.010467 -0.354887
v -1.097807 0.006324 -0.481663
v -0.018702 -0.060905 0.117752
v -0.257055 0.238737 0.025675
v -0.756227 0.184141 -0.235033
v -1.099798 0.038450 -0.402863
v 0.133156 -0.240588 0.122845
v 0.094624 -0.225159 -0.014482
v 0.414349 0.036580 0.276398
v 0.239637 0.091365 -0.293011
v 1.573389 0.347290 -0.450197
v 0.829819 0.317855 0.018639
v 0.748047 0.352756 -0.229313
v 1.147356 0.400115 -0.356352
v 1.200098 0.382774 -0.221201
v 0.104990 -0.227137 0.057732
v 0.211445 0.163940 0.059978
v 0.750830 0.372897 -0.086740
v 1.131573 0.415603 -0.268513
v 0.049072 -0.223026 -0.084410
v -0.051662 -0.241119 -0.127338
v 0.223009 0.042370 -0.177422
v -0.190344 -0.029981 -0.345427
v 0.242163 0.288947 -1.222052
v 0.203775 0.249602 -0.551519
v -0.016937 0.207724 -0.641109
v 0.099890 0.288165 -0.926006
v 0.203892 0.303074 -0.896177
v -0.004305 -0.228241 -0.098478
v -0.022768 0.076966 -0.153543
v 0.086256 0.256832 -0.561594
v 0.140387 0.310879 -0.876705
v 0.141960 -0.139740 0.009068
v 0.161007 -0.159193 -0.064466
v 0.255663 0.037357 0.097910
v 0.329033 -0.052591 -0.218727
v 1.030321 0.038738 0.023050
v 0.556784 0.118404 0.035566
v 0.588324 0.080666 -0.109158
v 0.806669 0.088163 -0.061474
v 0.795736 0.106103 0.016941
v 0.146978 -0.145536 -0.029295
v 0.236160 0.059617 -0.068987
v 0.554771 0.124763 -0.039085
v 0.778273 0.114042 -0.028917
v -0.181719 -0.096388 -0.336227
v -0.224541 -0.076966 -0.293997
v -0.175592 -0.026062 -0.516157
v -0.344446 0.053587 -0.340448
v -0.704386 0.019116 -0.814421
v -0.376436 0.054930 -0.641388
v -0.455559 0.092131 -0.557049
v -0.578926 0.075931 -0.692846
v -0.541904 0.055421 -0.736895
v -0.199888 -0.083849 -0.313528
v -0.216768 0.058005 -0.410206
v -0.401022 0.091094 -0.594488
v -0.544002 0.078221 -0.707273
v 0.110985 -0.041773 0.260315
v 0.204964 -0.038893 0.195337
v 0.020557 0.172026 0.452820
v 0.404293 0.201995 0.226700
v 0.721922 0.448315 1.125813
v 0.270262 0.399896 0.706764
v 0.454561 0.416951 0.596533
v 0.583506 0.467717 0.839428
v 0.497274 0.456649 0.900005
v 0.152067 -0.036078 0.223991
v 0.145037 0.262706 0.295282
v 0.343395 0.434136 0.628017
v 0.518660 0.477744 0.842466
v 0.046404 -0.071837 0.160688
v 0.133549 -0.071302 0.184322
v -0.160133 0.080485 0.249975
v 0.199627 0.097472 0.385826
v -0.218039 0.079427 1.101900
v -0.177103 0.176649 0.578714
v -0.003426 0.188257 0.637396
v -0.111706 0.167796 0.864214
v -0.199173 0.158653 0.839317
v 0.090111 -0.066885 0.167740
v 0.032158 0.163947 0.257301
v -0.086277 0.210308 0.587681
v -0.150934 0.184174 0.826735
vn -0.4545 0.4634 -0.7608
vn -0.2812 0.4886 -0.8259
vn -0.2621 0.5717 -0.7775
vn -0.0414 0.7191 -0.6936
vn -0.0210 0.7385 -0.6740
vn 0.3547 0.8341 -0.4225
vn 0.3563 0.8380 -0.4132
vn 0.1690 0.9844 -0.0492
vn 0.1835 0.9814 -0.0558
vn -0.2424 0.9539 -0.1770
vn -0.2186 0.9593 -0.1789
vn -0.4855 0.8409 -0.2391
vn -0.5653 0.8022 -0.1924
vn -0.6606 0.6586 -0.3602
vn 0.1774 -0.9704 -0.1640
vn -0.8728 -0.4273 0.2360
vn -0.3224 -0.9458 -0.0398
vn -0.0307 -0.9961 -0.0829
vn 0.3487 -0.8611 0.3701
vn 0.1081 -0.8010 0.5889
vn -0.4910 -0.2474 0.8353
vn 0.4620 -0.8663 0.1898
vn -0.6849 0.6729 0.2794
vn -0.6377 0.7677 0.0632
vn -0.5487 0.8293 0.1061
vn -0.3200 0.9474 0.0034
vn -0.3326 0.9430 0.0084
vn 0.0541 0.9790 -0.1966
vn 0.0400 0.9790 -0.1999
vn 0.3094 0.9407 0.1394
vn 0.3086 0.9466 0.0935
vn 0.0209 0.9162 0.4002
vn 0.0144 0.9143 0.4049
vn -0.1256 0.7919 0.5976
vn -0.1017 0.6894 0.7172
vn -0.3553 0.6257 0.6944
vn 0.2060 0.5983 0.7744
vn 0.0154 0.7509 0.6603
vn 0.0948 0.8145 0.5723
vn 0.0737 0.9422 0.3270
vn 0.0814 0.9329 0.3508
vn -0.0108 0.9985 -0.0528
vn -0.0231 0.9993 -0.0310
vn 0.3615 0.9079 -0.2124
vn 0.3186 0.9215 -0.2222
vn 0.5310 0.8377 0.1280
vn 0.5005 0.8608 0.0923
vn 0.6157 0.7096 0.3425
vn 0.7102 0.5725 0.4096
vn 0.6071 0.4980 0.6192
vn 0.7329 0.5782 0.3585
vn 0.6084 0.5983 0.5214
vn 0.5146 0.7065 0.4859
vn 0.2744 0.8129 0.5138
vn 0.3014 0.8037 0.5131
vn -0.1328 0.8500 0.5098
vn -0.1144 0.8434 0.5250
vn -0.1837 0.9760 0.1168
vn -0.1961 0.9707 0.1391
vn 0.2177 0.9760 -0.0074
vn 0.1922 0.9813 0.0118
vn 0.4594 0.8827 -0.0993
vn 0.5099 0.8398 -0.1862
vn 0.6976 0.7115 -0.0846
vn 0.0944 0.8709 -0.4823
vn 0.1804 0.9428 -0.2803
vn 0.0695 0.9751 -0.2104
vn -0.0669 0.9942 0.0845
vn -0.0455 0.9975 0.0543
vn -0.1937 0.8642 0.4644
vn -0.1527 0.8835 0.4429
vn -0.5569 0.7520 0.3526
vn -0.5286 0.7566 0.3848
vn -0.5473 0.8348 -0.0588
vn -0.5454 0.8375 -0.0339
vn -0.5020 0.7878 -0.3570
vn -0.5276 0.7189 -0.4526
vn -0.3420 0.7260 -0.5966
vn 0.6407 -0.7636 -0.0796
vn -0.3385 -0.5550 -0.7599
vn 0.3110 -0.8277 -0.4671
vn 0.4884 -0.8326 -0.2612
vn 0.2592 -0.9173 0.3024
vn -0.0212 -0.9756 0.2185
vn -0.7348 -0.6699 -0.1058
vn 0.4587 -0.8187 0.3454
vn -0.0872 -0.9836 0.1578
vn 0.9490 -0.3021 0.0900
vn 0.4146 -0.8904 0.1878
vn 0.1755 -0.9714 0.1601
vn -0.1052 -0.9025 -0.4177
vn 0.1581 -0.7932 -0.5881
vn 0.6883 -0.2396 -0.6847
vn -0.2557 -0.9274 -0.2731
vn 0.3312 -0.9305 0.1567
vn 0.7434 -0.1217 -0.6577
vn 0.6288 -0.7529 -0.1944
vn 0.4866 -0.8718 -0.0567
vn -0.0902 -0.9817 -0.1674
vn -0.1190 -0.8844 -0.4514
vn -0.0551 -0.2367 -0.9700
vn -0.1129 -0.9932 0.0298
vn -0.3364 -0.8579 0.3885
vn 0.7564 -0.2473 0.6056
vn 0.1171 -0.7763 0.6194
vn -0.0756 -0.8445 0.5302
vn -0.0514 -0.9927 -0.1095
vn 0.2209 -0.9660 -0.1341
vn 0.8842 -0.4566 -0.0990
vn -0.2740 -0.9597 -0.0618
vn 0.1720 -0.9486 0.2658
vn -0.4195 -0.5783 -0.6997
vn -0.0597 -0.9893 -0.1328
vn 0.0503 -0.9968 0.0627
vn -0.3118 -0.8021 0.5093
vn -0.5267 -0.7634 0.3739
vn -0.9308 -0.3067 -0.1991
vn -0.1101 -0.7914 0.6013
vn -0.1525 -0.9883 0.0068
vn 0.2378 -0.2626 0.9351
vn -0.0489 -0.8678 0.4945
vn -0.0969 -0.9600 0.2626
vn 0.3589 -0.9247 -0.1265
vn 0.6009 -0.7951 0.0822
vn 0.7881 -0.1565 0.5953
vn 0.2265 -0.9387 -0.2600
vn -0.0406 -0.9305 -0.3641
vn -0.6029 -0.4617 0.6507
vn -0.3504 -0.9362 0.0271
vn -0.1863 -0.9684 -0.1660
vn 0.3912 -0.9202 -0.0134
vn 0.3553 -0.8959 0.2667
vn 0.0836 -0.3735 0.9239
vn 0.4052 -0.8829 -0.2373
vt 0.095703 0.054688
vt 0.052734 0.039062
vt 0.093750 0.001953
vt 0.054688 0.074219
vt 0.041016 0.066406
vt 0.097656 0.119141
vt 0.015625 0.128906
vt 0.027344 0.101562
vt 0.046875 0.150391
vt 0.015625 0.150391
vt 0.015625 0.212891
vt 0.097656 0.197266
vt 0.066406 0.251953
vt 0.041016 0.253906
vt 0.093750 0.332031
vt 0.068359 0.291016
vt 0.125000 0.253906
vt 0.123047 0.292969
vt 0.177734 0.216797
vt 0.150391 0.255859
vt 0.146484 0.152344
vt 0.177734 0.132812
vt 0.177734 0.154297
vt 0.136719 0.076172
vt 0.166016 0.103516
vt 0.150391 0.068359
vt 0.136719 0.041016
vt 0.242188 0.281250
vt 0.222656 0.283203
vt 0.216797 0.332031
vt 0.250000 -0.000000
vt 0.232422 0.000000
vt 0.183594 0.097656
vt 0.269531 0.093750
vt 0.218750 0.214844
vt 0.257812 0.214844
vt 0.289062 0.208984
vt 0.255859 0.281250
vt 0.332031 0.085938
vt 0.267578 -0.001953
s 0
usemtl MAT_GRASS
f 3/1/1 1/2/1 2/3/1
f 3/1/2 5/4/2 4/5/2 1/2/2
f 8/6/3 7/7/3 6/8/3 5/4/3 3/1/3
f 10/9/4 9/10/4 7/7/4 8/6/4
f 11/11/5 10/9/5 8/6/5 12/12/5
f 14/13/6 13/14/6 11/11/6 12/12/6
f 16/15/7 15/16/7 14/13/7 12/12/7
f 18/17/8 17/18/8 16/15/8 12/12/8
f 20/19/9 19/20/9 18/17/9 12/12/9
f 21/21/10 20/19/10 12/12/10 8/6/10
f 23/22/11 22/23/11 21/21/11 8/6/11
f 23/22/12 8/6/12 3/1/12 25/24/12 24/25/12
f 26/26/13 25/24/13 3/1/13 27/27/13
f 27/27/14 3/1/14 2/3/14
f 40/28/15 35/29/15 32/30/15
f 37/31/16 29/32/16 31/33/16 38/34/16
f 38/34/17 31/33/17 34/35/17 39/36/17
f 39/36/18 34/35/18 35/29/18 40/28/18
f 33/37/19 39/36/19 40/28/19 36/38/19
f 30/39/20 38/34/20 39/36/20 33/37/20
f 28/40/21 37/31/21 38/34/21 30/39/21
f 36/38/22 40/28/22 32/30/22
f 43/1/23 41/2/23 42/3/23
f 43/1/24 45/4/24 44/5/24 41/2/24
f 48/6/25 47/7/25 46/8/25 45/4/25 43/1/25
f 50/9/26 49/10/26 47/7/26 48/6/26
f 51/11/27 50/9/27 48/6/27 52/12/27
f 54/13/28 53/14/28 51/11/28 52/12/28
f 56/15/29 55/16/29 54/13/29 52/12/29
f 58/17/30 57/18/30 56/15/30 52/12/30
f 60/19/31 59/20/31 58/17/31 52/12/31
f 61/21/32 60/19/32 52/12/32 48/6/32
f 63/22/33 62/23/33 61/21/33 48/6/33
f 63/22/34 48/6/34 43/1/34 65/24/34 64/25/34
f 66/26/35 65/24/35 43/1/35 67/27/35
f 67/27/36 43/1/36 42/3/36
f 70/1/37 68/2/37 69/3/37
f 70/1/38 72/4/38 71/5/38 68/2/38
f 75/6/39 74/7/39 73/8/39 72/4/39 70/1/39
f 77/9/40 76/10/40 74/7/40 75/6/40
f 78/11/41 77/9/41 75/6/41 79/12/41
f 81/13/42 80/14/42 78/11/42 79/12/42
f 83/15/43 82/16/43 81/13/43 79/12/43
f 85/17/44 84/18/44 83/15/44 79/12/44
f 87/19/45 86/20/45 85/17/45 79/12/45
f 88/21/46 87/19/46 79/12/46 75/6/46
f 90/22/47 89/23/47 88/21/47 75/6/47
f 90/22/48 75/6/48 70/1/48 92/24/48 91/25/48
f 93/26/49 92/24/49 70/1/49 94/27/49
f 94/27/50 70/1/50 69/3/50
f 97/1/51 95/2/51 96/3/51
f 97/1/52 99/4/52 98/5/52 95/2/52
f 102/6/53 101/7/53 100/8/53 99/4/53 97/1/53
f 104/9/54 103/10/54 101/7/54 102/6/54
f 105/11/55 104/9/55 102/6/55 106/12/55
f 108/13/56 107/14/56 105/11/56 106/12/56
f 110/15/57 109/16/57 108/13/57 106/12/57
f 112/17/58 111/18/58 110/15/58 106/12/58
f 114/19/59 113/20/59 112/17/59 106/12/59
f 115/21/60 114/19/60 106/12/60 102/6/60
f 117/22/61 116/23/61 115/21/61 102/6/61
f 117/22/62 102/6/62 97/1/62 119/24/62 118/25/62
f 120/26/63 119/24/63 97/1/63 121/27/63
f 121/27/64 97/1/64 96/3/64
f 124/1/65 122/2/65 123/3/65
f 124/1/66 126/4/66 125/5/66 122/2/66
f 129/6/67 128/7/67 127/8/67 126/4/67 124/1/67
f 131/9/68 130/10/68 128/7/68 129/6/68
f 132/11/69 131/9/69 129/6/69 133/12/69
f 135/13/70 134/14/70 132/11/70 133/12/70
f 137/15/71 136/16/71 135/13/71 133/12/71
f 139/17/72 138/18/72 137/15/72 133/12/72
f 141/19/73 140/20/73 139/17/73 133/12/73
f 142/21/74 141/19/74 133/12/74 129/6/74
f 144/22/75 143/23/75 142/21/75 129/6/75
f 144/22/76 129/6/76 124/1/76 146/24/76 145/25/76
f 147/26/77 146/24/77 124/1/77 148/27/77
f 148/27/78 124/1/78 123/3/78
f 161/28/79 156/29/79 153/30/79
f 158/31/80 150/32/80 152/33/80 159/34/80
f 159/34/81 152/33/81 155/35/81 160/36/81
f 160/36/82 155/35/82 156/29/82 161/28/82
f 154/37/83 160/36/83 161/28/83 157/38/83
f 151/39/84 159/34/84 160/36/84 154/37/84
f 149/40/85 158/31/85 159/34/85 151/39/85
f 157/38/86 161/28/86 153/30/86
f 174/28/87 169/29/87 166/30/87
f 171/31/88 163/32/88 165/33/88 172/34/88
f 172/34/89 165/33/89 168/35/89 173/36/89
f 173/36/90 168/35/90 169/29/90 174/28/90
f 167/37/91 173/36/91 174/28/91 170/38/91
f 164/39/92 172/34/92 173/36/92 167/37/92
f 162/40/93 171/31/93 172/34/93 164/39/93
f 170/38/94 174/28/94 166/30/94
f 187/28/95 182/29/95 179/30/95
f 184/31/96 176/32/96 178/33/96 185/34/96
f 185/34/97 178/33/97 181/35/97 186/36/97
f 186/36/98 181/35/98 182/29/98 187/28/98
f 180/37/99 186/36/99 187/28/99 183/38/99
f 177/39/100 185/34/100 186/36/100 180/37/100
f 175/40/101 184/31/101 185/34/101 177/39/101
f 183/38/102 187/28/102 179/30/102
f 200/28/103 195/29/103 192/30/103
f 197/31/104 189/32/104 191/33/104 198/34/104
f 198/34/105 191/33/105 194/35/105 199/36/105
f 199/36/106 194/35/106 195/29/106 200/28/106
f 193/37/107 199/36/107 200/28/107 196/38/107
f 190/39/108 198/34/108 199/36/108 193/37/108
f 188/40/109 197/31/109 198/34/109 190/39/109
f 196/38/110 200/28/110 192/30/110
f 213/28/111 208/29/111 205/30/111
f 210/31/112 202/32/112 204/33/112 211/34/112
f 211/34/113 204/33/113 207/35/113 212/36/113
f 212/36/114 207/35/114 208/29/114 213/28/114
f 206/37/115 212/36/115 213/28/115 209/38/115
f 203/39/116 211/34/116 212/36/116 206/37/116
f 201/40/117 210/31/117 211/34/117 203/39/117
f 209/38/118 213/28/118 205/30/118
f 226/28/119 221/29/119 218/30/119
f 223/31/120 215/32/120 217/33/120 224/34/120
f 224/34/121 217/33/121 220/35/121 225/36/121
f 225/36/122 220/35/122 221/29/122 226/28/122
f 219/37/123 225/36/123 226/28/123 222/38/123
f 216/39/124 224/34/124 225/36/124 219/37/124
f 214/40/125 223/31/125 224/34/125 216/39/125
f 222/38/126 226/28/126 218/30/126
f 239/28/127 234/29/127 231/30/127
f 236/31/128 228/32/128 230/33/128 237/34/128
f 237/34/129 230/33/129 233/35/129 238/36/129
f 238/36/130 233/35/130 234/29/130 239/28/130
f 232/37/131 238/36/131 239/28/131 235/38/131
f 229/39/132 237/34/132 238/36/132 232/37/132
f 227/40/133 236/31/133 237/34/133 229/39/133
f 235/38/134 239/28/134 231/30/134
