# Blender 4.1.1
# www.blender.org
mtllib GRASS_02.mtl
o GRASS_02
v 0.735294 0.401397 -0.537022
v 0.733711 0.401397 -0.538704
v 0.504604 0.571931 0.863018
v 0.507908 0.571931 0.861694
v -0.425846 0.362308 0.204372
v 0.744175 0.402320 0.441978
v 0.522526 0.515302 -0.768734
v 0.101288 0.506387 -0.879181
v 0.036919 0.386834 0.610210
v -0.812855 0.612645 -0.520920
v -0.814785 0.612645 -0.517582
v -0.086208 0.309266 -0.203091
v -0.000549 0.006857 -0.137486
v -0.109734 0.034510 0.067635
v -0.147514 0.309240 0.001492
v -0.813820 0.613092 -0.519249
v -0.075729 -0.068687 -0.034927
v -0.115192 0.289408 -0.097603
v -0.603912 0.965237 -0.347954
v -0.560520 0.965237 -0.423111
v -0.569035 1.019991 -0.377922
v -0.392570 0.742033 -0.347702
v -0.372063 0.842874 -0.176067
v -0.371555 0.812522 -0.263908
v -0.143097 0.401395 -0.463093
v -0.145058 0.401395 -0.461868
v -0.412468 0.524298 0.629169
v 0.397041 0.218176 -0.139931
v 0.313145 0.033839 -0.088161
v 0.213284 0.061461 -0.191353
v 0.321087 0.219690 -0.250927
v 0.734505 0.401665 -0.537861
v 0.253197 -0.006682 -0.139755
v 0.352436 0.207796 -0.191486
v 0.600151 0.612582 -0.446854
v 0.635822 0.612577 -0.409046
v 0.611359 0.645372 -0.421696
v 0.524185 0.539691 -0.276543
v 0.507236 0.485251 -0.375828
v 0.506622 0.528731 -0.322895
v 0.506256 0.572344 0.862354
v 0.377316 0.897268 0.648186
v 0.409260 0.947788 0.620258
v 0.250404 0.784980 0.413368
v 0.081841 0.261302 0.169460
v 0.315395 0.800920 0.385998
v 0.173687 0.273679 0.132050
v 0.381306 0.784980 0.360920
v 0.451645 0.897269 0.618404
v 0.285316 0.292002 0.094635
v 0.216869 0.035331 -0.007942
v 0.085663 -0.056736 0.032700
v -0.019264 -0.012698 0.073341
v 0.707520 0.331474 0.092445
v 0.582550 0.495851 0.075092
v 0.581577 0.521376 0.053680
v 0.449806 0.439117 0.051300
v 0.281391 0.190040 0.025921
v 0.459457 0.447172 0.017002
v 0.300701 0.180782 -0.022755
v 0.470303 0.439118 -0.016937
v 0.594189 0.495851 0.036346
v 0.318741 0.176803 -0.071434
v 0.232460 0.010894 -0.091187
v 0.214211 0.013840 -0.038311
v 0.203293 0.066104 0.014565
v 0.708038 0.331474 0.090721
v -0.426254 0.362073 0.203445
v -0.306828 0.546932 0.126835
v -0.290325 0.575641 0.144413
v -0.176044 0.483130 0.050041
v -0.086365 0.197230 -0.028549
v -0.159191 0.492187 0.086391
v -0.063416 0.192604 0.023499
v -0.152916 0.473489 0.125984
v -0.288418 0.546934 0.168446
v -0.037968 0.202679 0.075768
v -0.013939 0.064508 0.055672
v -0.049999 0.004859 -0.001106
v -0.070976 0.032221 -0.057888
v -0.425438 0.362073 0.205296
v 0.743469 0.402048 0.442890
v 0.638897 0.510573 0.384739
v 0.623219 0.606690 0.348328
v 0.509422 0.477418 0.306953
v 0.266975 0.219689 0.184139
v 0.515182 0.504972 0.264683
v 0.308315 0.208451 0.130058
v 0.528759 0.512663 0.222073
v 0.634361 0.608382 0.324360
v 0.357548 0.219689 0.080704
v 0.277889 0.061460 0.030724
v 0.212917 -0.006027 0.086807
v 0.170326 0.061460 0.142891
v 0.744884 0.402048 0.441063
v 0.521076 0.515667 -0.769344
v 0.469006 0.802735 -0.554707
v 0.431591 0.847366 -0.557014
v 0.402832 0.703528 -0.328369
v 0.320515 0.267989 -0.094311
v 0.345001 0.717611 -0.351555
v 0.226864 0.251801 -0.128826
v 0.288021 0.703528 -0.376751
v 0.403812 0.802734 -0.582184
v 0.131062 0.267989 -0.163338
v 0.051376 0.047365 -0.079182
v 0.136547 -0.040116 -0.041691
v 0.236954 -0.018533 -0.004196
v 0.519627 0.515302 -0.769955
v 0.104366 0.506387 -0.879181
v 0.102829 0.506744 -0.879181
v 0.137466 0.787850 -0.665695
v 0.102829 0.831556 -0.653549
v 0.159595 0.660138 -0.467022
v 0.154247 0.264209 -0.202579
v 0.102829 0.628487 -0.508808
v 0.064182 0.248357 -0.218815
v 0.058460 0.573203 -0.557053
v 0.068192 0.787850 -0.665695
v -0.014202 0.264209 -0.248936
v -0.073765 0.053322 -0.105942
v 0.013836 -0.037499 -0.105942
v 0.136013 0.053322 -0.105942
v 0.034756 0.386834 0.609795
v 0.035835 0.387089 0.610001
v 0.040260 0.588267 0.455284
v 0.066242 0.619548 0.451412
v 0.052643 0.518744 0.290485
v 0.017368 0.213514 0.119869
v 0.095661 0.528613 0.297955
v 0.073582 0.202170 0.131596
v 0.138393 0.518744 0.306923
v 0.088951 0.588269 0.464619
v 0.137180 0.211914 0.143322
v 0.136864 0.059066 0.079254
v 0.053856 -0.002409 0.066517
v -0.006031 0.059402 0.053776
v 0.644421 0.272197 -0.180496
v 0.556477 0.396893 -0.142727
v 0.547440 0.416257 -0.156250
v 0.460957 0.353856 -0.106094
v 0.337543 0.157329 -0.068684
v 0.453762 0.359965 -0.132149
v 0.327778 0.157881 -0.106022
v 0.447487 0.353856 -0.158440
v 0.548828 0.396894 -0.172451
v 0.319557 0.162447 -0.143406
v 0.252930 0.046640 -0.136364
v 0.260048 0.031238 -0.095802
v 0.271847 0.037083 -0.055241
v 0.644081 0.272197 -0.181816
v -0.144077 0.401663 -0.462479
v -0.037075 0.612576 -0.340485
v -0.054268 0.645369 -0.318974
v 0.071003 0.539689 -0.205067
v 0.139496 0.219689 -0.064213
v 0.032635 0.550036 -0.180107
v 0.070469 0.207795 -0.029572
v -0.006592 0.539689 -0.156509
v -0.081135 0.612580 -0.312912
v 0.017910 0.218853 0.005066
v 0.016556 0.027663 0.066944
v 0.082195 -0.006683 0.029320
v 0.157345 0.024783 -0.008308
v -0.411205 0.524670 0.630161
v -0.302383 0.817750 0.432671
v -0.266140 0.863319 0.444969
v -0.176529 0.716467 0.227425
v -0.078892 0.248465 0.015553
v -0.125774 0.730844 0.265766
v -0.011009 0.255277 0.071503
v -0.076393 0.716466 0.305862
v -0.245522 0.817750 0.477207
v 0.057766 0.271150 0.127453
v 0.078083 -0.021728 0.056282
v -0.008751 -0.042756 -0.004494
v -0.088017 -0.038341 -0.065273
v -0.409943 0.524298 0.631149
vn 0.8489 -0.5268 0.0426
vn -0.9625 -0.1618 -0.2178
vn -0.8124 -0.2557 -0.5240
vn 0.4614 -0.5268 0.7139
vn -0.7591 -0.4287 0.4898
vn -0.4425 -0.8424 -0.3074
vn -0.9038 -0.4257 -0.0444
vn -0.8709 -0.4826 0.0924
vn -0.2844 -0.5268 0.8010
vn 0.5220 -0.4970 -0.6932
vn 0.7261 -0.4649 -0.5066
vn -0.8163 -0.5267 0.2371
vn 0.2311 -0.8473 -0.4782
vn 0.8327 -0.4484 0.3250
vn 0.8457 -0.5271 -0.0832
vn 0.7762 -0.5001 -0.3839
vn 0.0783 -0.5268 -0.8464
vn 0.6132 -0.7773 0.1408
vn 0.4071 -0.4864 0.7731
vn -0.3464 -0.7773 0.5253
vn 0.2957 -0.4877 0.8214
vn 0.4389 -0.3946 0.8073
vn 0.2890 -0.3753 0.8807
vn -0.6411 -0.5268 -0.5581
vn -0.6240 -0.5309 -0.5734
vn 0.4923 -0.7773 -0.3918
vn 0.7927 -0.5391 0.2845
vn 0.1949 -0.7773 0.5982
vn 0.7799 -0.5199 0.3484
vn 0.8244 -0.4625 0.3261
vn 0.7341 -0.4615 0.4981
vn -0.8355 -0.5244 0.1642
vn 0.8486 -0.5268 0.0484
vn -0.1189 -0.7772 0.6179
vn -0.8427 -0.3630 0.3976
vn -0.5728 -0.6909 -0.4411
vn -0.8846 -0.3803 0.2698
vn -0.8077 -0.1702 0.5644
vn -0.9322 -0.1279 0.3387
vn 0.5350 -0.5268 -0.6605
vn 0.1608 -0.3346 -0.9285
vn 0.6564 -0.3668 -0.6593
vn 0.7016 -0.6749 0.2287
vn 0.6161 -0.7787 0.1190
vn 0.7034 -0.6166 0.3535
vn 0.7516 -0.4690 0.4639
vn 0.5351 -0.4393 0.7216
vn -0.7131 -0.5932 -0.3735
vn -0.6509 -0.5268 0.5466
vn -0.3369 -0.7773 -0.5313
vn 0.3174 -0.4839 -0.8156
vn 0.6156 -0.7773 -0.1299
vn 0.3116 -0.4893 -0.8146
vn 0.1594 -0.3601 -0.9192
vn 0.3858 -0.3744 -0.8432
vn 0.0633 -0.5268 0.8476
vn -0.3876 -0.5268 0.7565
vn 0.1308 -0.7098 -0.6921
vn 0.4545 -0.5347 -0.7124
vn 0.7972 -0.3266 -0.5077
vn 0.5599 -0.5928 -0.5788
vn -0.1170 -0.4342 -0.8932
vn 0.2706 -0.4056 -0.8731
vn 0.3876 -0.5268 0.7565
vn 0.5231 -0.5268 -0.6700
vn 0.4401 -0.7772 0.4497
vn -0.1760 -0.4508 0.8751
vn -0.5752 -0.7773 0.2551
vn -0.1711 -0.4503 0.8763
vn 0.0084 -0.3402 0.9403
vn -0.3642 -0.2809 0.8880
vn -0.2381 -0.5268 -0.8160
vn -0.8306 -0.5309 -0.1679
vn 0.2187 -0.7773 -0.5900
vn 0.7963 -0.5413 -0.2699
vn 0.4762 -0.7773 0.4112
vn 0.8192 -0.5467 -0.1732
vn 0.8293 -0.4800 -0.2861
vn 0.8530 -0.4805 -0.2035
vn -0.6301 -0.5244 0.5727
vn 0.0728 -0.5268 0.8469
vn -0.6285 -0.7772 -0.0299
vn -0.4357 -0.4202 -0.7960
vn 0.2478 -0.7773 -0.5783
vn -0.4913 -0.4083 -0.7694
vn -0.5728 -0.2473 -0.7815
vn -0.3632 -0.2758 -0.8900
vn 0.7298 -0.5268 0.4358
vn 0.7716 -0.5268 -0.3566
vn 0.1857 -0.7773 0.6012
vn -0.5117 -0.4343 0.7414
vn -0.6281 -0.7773 -0.0363
vn -0.5643 -0.4362 0.7010
vn -0.5510 -0.2214 0.8046
vn -0.6070 -0.1992 0.7693
vn 0.1613 -0.5267 -0.8346
vt 0.050864 0.627838
vt 0.043876 0.629824
vt 0.059388 0.661133
vt 0.059521 0.661052
vt 0.034806 0.334984
vt 0.003468 0.359953
vt 0.007423 0.435329
vt 0.034338 0.431556
vt 0.065441 0.353574
vt 0.060072 0.439706
vt 0.057987 0.626197
vt 0.059676 0.661058
vt 0.059909 0.573191
vt 0.037179 0.577858
vt 0.017687 0.578891
vt 0.049159 0.622625
vt 0.056521 0.621248
vt 0.059137 0.658478
vt 0.058971 0.658475
vt 0.033806 0.337526
vt 0.064390 0.364321
vt 0.058737 0.440067
vt 0.033833 0.431333
vt 0.004174 0.353585
vt 0.007667 0.434315
vt 0.042151 0.625131
vt 0.058830 0.658562
vt 0.017730 0.574725
vt 0.034940 0.574214
vt 0.057520 0.569519
vt 0.080609 0.624535
vt 0.088092 0.623429
vt 0.085882 0.665127
vt 0.085704 0.665166
vt 0.075579 0.573169
vt 0.090596 0.576066
vt 0.072534 0.424121
vt 0.098466 0.427990
vt 0.105833 0.574774
vt 0.095415 0.625319
vt 0.124231 0.433881
vt 0.102288 0.335485
vt 0.131310 0.360309
vt 0.072534 0.345659
vt 0.086055 0.665184
vt 0.284528 0.610247
vt 0.291235 0.608780
vt 0.292010 0.646778
vt 0.291689 0.646811
vt 0.276808 0.564013
vt 0.290621 0.565650
vt 0.263912 0.435462
vt 0.287472 0.430660
vt 0.304377 0.563471
vt 0.298010 0.610044
vt 0.311217 0.428630
vt 0.285710 0.346480
vt 0.312245 0.344400
vt 0.258742 0.371121
vt 0.210675 0.622191
vt 0.218123 0.620310
vt 0.220272 0.662691
vt 0.220096 0.662749
vt 0.200739 0.570891
vt 0.215616 0.573148
vt 0.198105 0.428379
vt 0.223949 0.427401
vt 0.231676 0.571122
vt 0.225747 0.621452
vt 0.249546 0.433024
vt 0.227728 0.335369
vt 0.256688 0.363321
vt 0.198105 0.346541
vt 0.220454 0.662731
vt 0.060946 0.613647
vt 0.032483 0.613995
vt 0.056605 0.654076
vt 0.056797 0.653823
vt 0.055243 0.569969
vt 0.039570 0.567467
vt 0.057401 0.423246
vt 0.034930 0.419350
vt 0.025838 0.562900
vt 0.026924 0.616041
vt 0.012516 0.423657
vt 0.033666 0.339705
vt 0.008111 0.362778
vt 0.059944 0.361947
vt 0.056193 0.654637
vt 0.081039 0.616726
vt 0.088222 0.615687
vt 0.085981 0.655691
vt 0.085810 0.655728
vt 0.076367 0.567426
vt 0.090765 0.570249
vt 0.073547 0.431073
vt 0.098755 0.428040
vt 0.105390 0.569053
vt 0.095243 0.617522
vt 0.123448 0.433878
vt 0.103328 0.339305
vt 0.130955 0.365090
vt 0.075096 0.344003
vt 0.086147 0.655746
vt 0.086758 0.624606
vt 0.092717 0.625805
vt 0.092859 0.646432
vt 0.092765 0.646468
vt 0.071821 0.574621
vt 0.091724 0.575264
vt 0.068807 0.435343
vt 0.096075 0.434597
vt 0.113759 0.573204
vt 0.098624 0.624485
vt 0.120453 0.445545
vt 0.102143 0.336792
vt 0.132149 0.365922
vt 0.068807 0.362035
vt 0.092955 0.646466
vt 0.285020 0.616882
vt 0.292196 0.615397
vt 0.292373 0.655851
vt 0.292203 0.655899
vt 0.277309 0.567478
vt 0.291993 0.569446
vt 0.266139 0.430208
vt 0.291358 0.425552
vt 0.306660 0.567348
vt 0.299385 0.616819
vt 0.316602 0.429416
vt 0.291017 0.335711
vt 0.320339 0.360261
vt 0.261873 0.360619
vt 0.292544 0.655897
vt 0.162552 0.625221
vt 0.155362 0.623480
vt 0.153673 0.664307
vt 0.154018 0.664349
vt 0.172003 0.575632
vt 0.157118 0.577123
vt 0.188013 0.433175
vt 0.162592 0.432264
vt 0.142389 0.574513
vt 0.148062 0.624672
vt 0.137096 0.434336
vt 0.166392 0.341834
vt 0.137359 0.350811
vt 0.194682 0.347022
vt 0.147001 0.622719
vt 0.154423 0.621512
vt 0.152820 0.662995
vt 0.152643 0.663036
vt 0.141271 0.571733
vt 0.156238 0.574397
vt 0.135871 0.430553
vt 0.161918 0.427002
vt 0.171366 0.572892
vt 0.161730 0.623286
vt 0.187616 0.432256
vt 0.165479 0.335068
vt 0.194131 0.349745
vt 0.135871 0.346368
vt 0.152993 0.663049
vt 0.081411 0.615774
vt 0.088522 0.614780
vt 0.086115 0.654343
vt 0.085946 0.654378
vt 0.077019 0.566980
vt 0.091252 0.569841
vt 0.075225 0.426553
vt 0.099811 0.429433
vt 0.105725 0.568728
vt 0.095459 0.616628
vt 0.124227 0.434990
vt 0.104398 0.341827
vt 0.131694 0.349076
vt 0.076765 0.341782
vt 0.086279 0.654398
s 0
usemtl MAT_GRASS
f 21/1/1 19/2/1 11/3/1 16/4/1
f 17/5/2 14/6/2 15/7/2 18/8/2
f 13/9/3 17/5/3 18/8/3 12/10/3
f 20/11/4 21/1/4 16/4/4 10/12/4
f 22/13/5 24/14/5 21/1/5 20/11/5
f 24/14/6 23/15/6 19/2/6 21/1/6
f 18/8/7 15/7/7 23/15/7 24/14/7
f 12/10/8 18/8/8 24/14/8 22/13/8
f 37/16/9 35/17/9 2/18/9 32/19/9
f 33/20/10 30/21/10 31/22/10 34/23/10
f 29/24/11 33/20/11 34/23/11 28/25/11
f 36/26/12 37/16/12 32/19/12 1/27/12
f 38/28/13 40/29/13 37/16/13 36/26/13
f 40/29/14 39/30/14 35/17/14 37/16/14
f 34/23/15 31/22/15 39/30/15 40/29/15
f 28/25/16 34/23/16 40/29/16 38/28/16
f 42/31/17 43/32/17 41/33/17 3/34/17
f 44/35/18 46/36/18 43/32/18 42/31/18
f 45/37/19 47/38/19 46/36/19 44/35/19
f 46/36/20 48/39/20 49/40/20 43/32/20
f 47/38/21 50/41/21 48/39/21 46/36/21
f 52/42/22 51/43/22 50/41/22 47/38/22
f 53/44/23 52/42/23 47/38/23 45/37/23
f 43/32/24 49/40/24 4/45/24 41/33/24
f 55/46/25 56/47/25 67/48/25 54/49/25
f 57/50/26 59/51/26 56/47/26 55/46/26
f 58/52/27 60/53/27 59/51/27 57/50/27
f 59/51/28 61/54/28 62/55/28 56/47/28
f 60/53/29 63/56/29 61/54/29 59/51/29
f 65/57/30 64/58/30 63/56/30 60/53/30
f 66/59/31 65/57/31 60/53/31 58/52/31
f 56/47/32 62/55/32 67/48/32
f 69/60/33 70/61/33 5/62/33 68/63/33
f 71/64/34 73/65/34 70/61/34 69/60/34
f 72/66/35 74/67/35 73/65/35 71/64/35
f 73/65/36 75/68/36 76/69/36 70/61/36
f 74/67/37 77/70/37 75/68/37 73/65/37
f 79/71/38 78/72/38 77/70/38 74/67/38
f 80/73/39 79/71/39 74/67/39 72/66/39
f 70/61/40 76/69/40 81/74/40 5/62/40
f 83/75/41 84/76/41 6/77/41 82/78/41
f 85/79/42 87/80/42 84/76/42 83/75/42
f 86/81/43 88/82/43 87/80/43 85/79/43
f 87/80/44 89/83/44 90/84/44 84/76/44
f 88/82/45 91/85/45 89/83/45 87/80/45
f 93/86/46 92/87/46 91/85/46 88/82/46
f 94/88/47 93/86/47 88/82/47 86/81/47
f 84/76/48 90/84/48 95/89/48 6/77/48
f 97/90/49 98/91/49 96/92/49 7/93/49
f 99/94/50 101/95/50 98/91/50 97/90/50
f 100/96/51 102/97/51 101/95/51 99/94/51
f 101/95/52 103/98/52 104/99/52 98/91/52
f 102/97/53 105/100/53 103/98/53 101/95/53
f 107/101/54 106/102/54 105/100/54 102/97/54
f 108/103/55 107/101/55 102/97/55 100/96/55
f 98/91/56 104/99/56 109/104/56 96/92/56
f 112/105/57 113/106/57 111/107/57 110/108/57
f 114/109/58 116/110/58 113/106/58 112/105/58
f 115/111/59 117/112/59 116/110/59 114/109/59
f 116/110/60 118/113/60 119/114/60 113/106/60
f 117/112/61 120/115/61 118/113/61 116/110/61
f 122/116/62 121/117/62 120/115/62 117/112/62
f 123/118/63 122/116/63 117/112/63 115/111/63
f 113/106/64 119/114/64 8/119/64 111/107/64
f 126/120/65 127/121/65 125/122/65 124/123/65
f 128/124/66 130/125/66 127/121/66 126/120/66
f 129/126/67 131/127/67 130/125/67 128/124/67
f 130/125/68 132/128/68 133/129/68 127/121/68
f 131/127/69 134/130/69 132/128/69 130/125/69
f 136/131/70 135/132/70 134/130/70 131/127/70
f 137/133/71 136/131/71 131/127/71 129/126/71
f 127/121/72 133/129/72 9/134/72 125/122/72
f 139/135/73 140/136/73 151/137/73 138/138/73
f 141/139/74 143/140/74 140/136/74 139/135/74
f 142/141/75 144/142/75 143/140/75 141/139/75
f 143/140/76 145/143/76 146/144/76 140/136/76
f 144/142/77 147/145/77 145/143/77 143/140/77
f 149/146/78 148/147/78 147/145/78 144/142/78
f 150/148/79 149/146/79 144/142/79 142/141/79
f 140/136/80 146/144/80 151/137/80
f 153/149/81 154/150/81 152/151/81 25/152/81
f 155/153/82 157/154/82 154/150/82 153/149/82
f 156/155/83 158/156/83 157/154/83 155/153/83
f 157/154/84 159/157/84 160/158/84 154/150/84
f 158/156/85 161/159/85 159/157/85 157/154/85
f 163/160/86 162/161/86 161/159/86 158/156/86
f 164/162/87 163/160/87 158/156/87 156/155/87
f 154/150/88 160/158/88 26/163/88 152/151/88
f 166/164/89 167/165/89 165/166/89 27/167/89
f 168/168/90 170/169/90 167/165/90 166/164/90
f 169/170/91 171/171/91 170/169/91 168/168/91
f 170/169/92 172/172/92 173/173/92 167/165/92
f 171/171/93 174/174/93 172/172/93 170/169/93
f 176/175/94 175/176/94 174/174/94 171/171/94
f 177/177/95 176/175/95 171/171/95 169/170/95
f 167/165/96 173/173/96 178/178/96 165/166/96
