# Blender 4.1.1
# www.blender.org
mtllib MUSHROOM_05.mtl
o MUSH_05
v 0.221249 0.127730 0.221247
v 0.221249 0.127730 -0.221247
v -0.221245 0.127730 0.221247
v -0.221245 0.127730 -0.221247
v 0.242817 0.742141 0.242819
v 0.242817 0.742141 -0.242816
v -0.242817 0.742141 -0.242816
v -0.242817 0.742141 0.242819
v 0.144970 1.675769 -0.144967
v -0.144966 1.675769 -0.144967
v -0.144966 1.675769 0.144970
v 0.144970 1.675769 0.144970
v 0.490276 2.229890 0.462602
v 0.509720 1.817112 0.480948
v 0.490276 2.229890 -0.462601
v 0.509720 1.817112 -0.480949
v -0.490273 2.229891 0.462602
v -0.509716 1.817113 0.480948
v -0.490273 2.229891 -0.462601
v -0.509716 1.817113 -0.480949
v 0.353329 1.697961 0.333384
v 0.353329 1.697961 -0.333384
v -0.353325 1.697961 -0.333384
v -0.353325 1.697961 0.333384
v 0.238323 0.345906 0.238320
v 0.281067 0.086508 0.000000
v 0.060902 2.016390 -0.060897
v 0.000000 0.086508 -0.281067
v -0.060898 2.016390 -0.060897
v -0.281063 0.086508 0.000000
v -0.060898 2.016390 0.060900
v 0.000000 0.086508 0.281066
v 0.168808 1.210650 0.168806
v 0.238323 0.345906 -0.238321
v -0.238319 0.345906 -0.238321
v -0.238319 0.345906 0.238320
v 0.000000 0.742141 0.333874
v -0.333870 0.742141 0.000001
v 0.000000 0.742141 -0.333872
v 0.333874 0.742141 0.000001
v 0.168808 1.210650 -0.168804
v -0.168804 1.210650 -0.168804
v -0.168804 1.210650 0.168806
v 0.060902 2.016390 0.060900
v 0.199333 1.675934 0.000001
v 0.000000 1.675934 -0.199330
v -0.199329 1.675934 0.000001
v 0.000000 1.675934 0.199332
v 0.597713 2.279471 0.000001
v 0.617065 2.131895 0.582235
v 0.700867 1.817109 -0.000001
v 0.617065 2.131893 -0.582234
v 0.000000 2.285045 -0.563972
v 0.000004 1.819213 -0.661305
v -0.617062 2.131894 -0.582234
v -0.597710 2.279471 0.000001
v -0.700863 1.817110 -0.000001
v -0.617062 2.131894 0.582235
v 0.000004 2.285045 0.563974
v 0.000004 1.819213 0.661304
v 0.416946 1.770278 0.000000
v 0.000004 1.776494 -0.393410
v -0.416943 1.770278 0.000000
v 0.000004 1.776494 0.393410
v 0.423229 1.830851 0.399338
v 0.423229 1.830851 -0.399339
v -0.423225 1.830851 0.399338
v -0.423225 1.830851 -0.399339
v 0.330418 0.341843 0.000000
v 0.000000 0.341843 -0.330415
v -0.330414 0.341843 0.000000
v 0.000000 0.341843 0.330415
v 0.000000 0.000000 0.000000
v 0.000000 1.210650 0.232108
v -0.232105 1.210650 0.000001
v 0.000000 1.210650 -0.232105
v 0.232109 1.210650 0.000001
v 0.084213 2.019194 0.000001
v 0.000000 2.019194 -0.084210
v -0.084209 2.019194 0.000001
v 0.000000 2.019194 0.084212
v 0.849125 2.136030 0.000000
v 0.000000 2.141524 -0.801194
v -0.849121 2.136029 0.000000
v 0.000004 2.141524 0.801195
v 0.579853 1.832777 -0.000001
v 0.000000 2.060555 0.000002
v 0.000004 1.835563 0.547123
v 0.000004 1.835563 -0.547125
v -0.579849 1.832778 -0.000001
vn 0.9345 -0.0113 0.3558
vn 0.9354 -0.1429 0.3233
vn 0.9354 -0.1429 -0.3233
vn 0.9345 -0.0113 -0.3558
vn 0.3558 -0.0113 -0.9345
vn 0.3233 -0.1429 -0.9354
vn -0.3233 -0.1429 -0.9354
vn -0.3558 -0.0113 -0.9345
vn -0.9345 -0.0113 -0.3558
vn -0.9354 -0.1429 -0.3233
vn -0.9354 -0.1429 0.3233
vn -0.9345 -0.0113 0.3558
vn -0.3558 -0.0113 0.9345
vn -0.3233 -0.1429 0.9354
vn 0.3233 -0.1429 0.9354
vn 0.3558 -0.0113 0.9345
vn -0.2673 -0.9258 -0.2672
vn 0.2672 -0.9258 -0.2672
vn 0.2672 -0.9258 0.2672
vn -0.2673 -0.9258 0.2672
vn -0.3504 0.0658 0.9343
vn -0.3441 0.1993 0.9175
vn 0.3441 0.1993 0.9175
vn 0.3504 0.0658 0.9343
vn -0.9343 0.0658 -0.3504
vn -0.9175 0.1993 -0.3441
vn -0.9175 0.1993 0.3441
vn -0.9343 0.0658 0.3504
vn 0.3504 0.0658 -0.9343
vn 0.3441 0.1993 -0.9175
vn -0.3441 0.1993 -0.9175
vn -0.3504 0.0658 -0.9343
vn 0.9343 0.0658 0.3504
vn 0.9175 0.1993 0.3441
vn 0.9175 0.1993 -0.3441
vn 0.9343 0.0658 -0.3504
vn 0.8907 0.3013 0.3404
vn 0.8907 0.3013 -0.3404
vn 0.3404 0.3013 -0.8907
vn -0.3404 0.3013 -0.8907
vn -0.8907 0.3013 -0.3404
vn -0.8907 0.3013 0.3404
vn -0.3404 0.3013 0.8907
vn 0.3404 0.3013 0.8907
vn -0.0000 1.0000 -0.0000
vn 0.4814 0.8533 0.2003
vn 0.8529 -0.3980 0.3379
vn 0.8529 -0.3980 -0.3379
vn 0.4814 0.8533 -0.2003
vn 0.1944 0.8430 -0.5015
vn 0.3052 -0.3817 -0.8724
vn -0.3052 -0.3817 -0.8724
vn -0.1944 0.8430 -0.5015
vn -0.4814 0.8533 -0.2003
vn -0.8529 -0.3980 -0.3379
vn -0.8529 -0.3980 0.3379
vn -0.4814 0.8533 0.2003
vn -0.1944 0.8430 0.5015
vn -0.3052 -0.3817 0.8724
vn 0.3052 -0.3817 0.8724
vn 0.1944 0.8430 0.5015
vn -0.1629 0.9697 0.1823
vn 0.1629 0.9697 0.1823
vn 0.1629 0.9697 -0.1823
vn -0.1629 0.9697 -0.1823
vn -0.1209 -0.9914 0.0499
vn -0.1209 -0.9914 -0.0499
vn 0.6210 -0.7764 0.1080
vn 0.6210 -0.7764 -0.1080
vn 0.4170 -0.8011 0.4293
vn -0.4170 -0.8011 0.4293
vn -0.4170 -0.8011 -0.4293
vn 0.4170 -0.8011 -0.4293
vn -0.0526 -0.9903 -0.1290
vn 0.0526 -0.9903 -0.1289
vn -0.0892 -0.7639 0.6392
vn 0.0892 -0.7639 0.6392
vn 0.0526 -0.9903 0.1289
vn -0.0526 -0.9903 0.1290
vn 0.0892 -0.7639 -0.6392
vn -0.0892 -0.7639 -0.6392
vn 0.1209 -0.9914 -0.0499
vn 0.1209 -0.9914 0.0499
vn -0.6210 -0.7764 -0.1080
vn -0.6210 -0.7764 0.1080
vt 0.576172 0.464844
vt 0.572266 0.419922
vt 0.601562 0.417969
vt 0.601562 0.460938
vt 0.572266 0.392578
vt 0.601562 0.388672
vt 0.630859 0.392578
vt 0.630859 0.419922
vt 0.625000 0.464844
vt 0.662109 0.421875
vt 0.650391 0.468750
vt 0.662109 0.390625
vt 0.541016 0.419922
vt 0.541016 0.390625
vt 0.570312 0.394531
vt 0.572266 0.417969
vt 0.552734 0.466797
vt 0.576172 0.462891
vt 0.601562 0.416016
vt 0.630859 0.394531
vt 0.630859 0.417969
vt 0.625000 0.462891
vt 0.664062 0.419922
vt 0.650391 0.466797
vt 0.664062 0.390625
vt 0.541016 0.421875
vt 0.552734 0.468750
vt 0.466293 0.548597
vt 0.511719 0.539512
vt 0.513536 0.597656
vt 0.453574 0.599473
vt 0.560778 0.550414
vt 0.569863 0.599473
vt 0.560778 0.644899
vt 0.511719 0.655801
vt 0.466293 0.644899
vt 0.617188 0.572266
vt 0.619141 0.519531
vt 0.636719 0.523438
vt 0.628906 0.574219
vt 0.568359 0.521484
vt 0.583984 0.519531
vt 0.574219 0.574219
vt 0.587891 0.574219
vt 0.587891 0.572266
vt 0.601562 0.519531
vt 0.601562 0.570312
vt 0.615234 0.574219
vt 0.636719 0.521484
vt 0.568359 0.523438
vt 0.601562 0.572266
vt 0.593750 0.611328
vt 0.601562 0.609375
vt 0.609375 0.611328
vt 0.613281 0.613281
vt 0.589844 0.613281
vt 0.595703 0.613281
vt 0.601562 0.613281
vt 0.609375 0.613281
vt 0.615234 0.613281
vt 0.658203 0.335938
vt 0.662109 0.341797
vt 0.662109 0.349609
vt 0.658203 0.353516
vt 0.650391 0.353516
vt 0.646484 0.349609
vt 0.646484 0.339844
vt 0.650391 0.335938
vt 0.467127 0.422687
vt 0.487561 0.413398
vt 0.489419 0.456124
vt 0.463412 0.446836
vt 0.511711 0.402252
vt 0.515426 0.465413
vt 0.476415 0.513712
vt 0.463412 0.489562
vt 0.452266 0.469128
vt 0.416970 0.491420
vt 0.426259 0.465413
vt 0.407682 0.521142
vt 0.357525 0.474701
vt 0.381675 0.463555
vt 0.402109 0.454267
vt 0.381675 0.420829
vt 0.405824 0.430117
vt 0.353810 0.411541
vt 0.394678 0.365099
vt 0.405824 0.387391
vt 0.416970 0.407825
vt 0.452266 0.385533
vt 0.444835 0.411541
vt 0.461554 0.355811
vt 0.435547 0.439405
vt 0.532145 0.469128
vt 0.485704 0.532288
vt 0.532145 0.391106
vt 0.365234 0.544922
vt 0.412109 0.544922
vt 0.404297 0.564453
vt 0.376953 0.572266
vt 0.333984 0.576172
vt 0.353516 0.585938
vt 0.376953 0.640625
vt 0.361328 0.615234
vt 0.388672 0.601562
vt 0.402344 0.634766
vt 0.390625 0.603516
vt 0.419922 0.591797
vt 0.427734 0.619141
vt 0.467127 0.339092
vt 0.383533 0.344665
vt 0.445312 0.580078
vt 0.447266 0.628906
vt 0.402109 0.537861
vt 0.338949 0.485847
vt 0.335938 0.626953
vt 0.369141 0.660156
vt 0.338949 0.407825
vt 0.414062 0.660156
s 0
usemtl MAT_MUSH
f 5/1/1 25/2/1 69/3/1 40/4/1
f 25/2/2 1/5/2 26/6/2 69/3/2
f 69/3/3 26/6/3 2/7/3 34/8/3
f 40/4/4 69/3/4 34/8/4 6/9/4
f 6/9/5 34/8/5 70/10/5 39/11/5
f 34/8/6 2/7/6 28/12/6 70/10/6
f 70/13/7 28/14/7 4/15/7 35/16/7
f 39/17/8 70/13/8 35/16/8 7/18/8
f 7/18/9 35/16/9 71/19/9 38/4/9
f 35/16/10 4/15/10 30/6/10 71/19/10
f 71/19/11 30/6/11 3/20/11 36/21/11
f 38/4/12 71/19/12 36/21/12 8/22/12
f 8/22/13 36/21/13 72/23/13 37/24/13
f 36/21/14 3/20/14 32/25/14 72/23/14
f 72/26/15 32/14/15 1/5/15 25/2/15
f 37/27/16 72/26/16 25/2/16 5/1/16
f 4/28/17 28/29/17 73/30/17 30/31/17
f 28/29/18 2/32/18 26/33/18 73/30/18
f 73/30/19 26/33/19 1/34/19 32/35/19
f 30/31/20 73/30/20 32/35/20 3/36/20
f 11/37/21 43/38/21 74/39/21 48/40/21
f 43/38/22 8/22/22 37/24/22 74/39/22
f 74/41/23 37/27/23 5/1/23 33/42/23
f 48/43/24 74/41/24 33/42/24 12/44/24
f 10/45/25 42/42/25 75/46/25 47/47/25
f 42/42/26 7/18/26 38/4/26 75/46/26
f 75/46/27 38/4/27 8/22/27 43/38/27
f 47/47/28 75/46/28 43/38/28 11/37/28
f 9/48/29 41/38/29 76/49/29 46/40/29
f 41/38/30 6/9/30 39/11/30 76/49/30
f 76/50/31 39/17/31 7/18/31 42/42/31
f 46/43/32 76/50/32 42/42/32 10/45/32
f 12/44/33 33/42/33 77/46/33 45/51/33
f 33/42/34 5/1/34 40/4/34 77/46/34
f 77/46/35 40/4/35 6/9/35 41/38/35
f 45/51/36 77/46/36 41/38/36 9/48/36
f 44/52/37 12/44/37 45/51/37 78/53/37
f 78/53/38 45/51/38 9/48/38 27/54/38
f 27/54/39 9/48/39 46/40/39 79/55/39
f 79/56/40 46/43/40 10/45/40 29/57/40
f 29/57/41 10/45/41 47/47/41 80/58/41
f 80/58/42 47/47/42 11/37/42 31/59/42
f 31/59/43 11/37/43 48/40/43 81/60/43
f 81/56/44 48/43/44 12/44/44 44/52/44
f 44/61/45 78/62/45 27/63/45 79/64/45 29/65/45 80/66/45 31/67/45 81/68/45
f 13/69/46 50/70/46 82/71/46 49/72/46
f 50/70/47 14/73/47 51/74/47 82/71/47
f 82/71/48 51/74/48 16/75/48 52/76/48
f 49/72/49 82/71/49 52/76/49 15/77/49
f 15/77/50 52/76/50 83/78/50 53/79/50
f 52/76/51 16/75/51 54/80/51 83/78/51
f 83/78/52 54/80/52 20/81/52 55/82/52
f 53/79/53 83/78/53 55/82/53 19/83/53
f 19/83/54 55/82/54 84/84/54 56/85/54
f 55/82/55 20/81/55 57/86/55 84/84/55
f 84/84/56 57/86/56 18/87/56 58/88/56
f 56/85/57 84/84/57 58/88/57 17/89/57
f 17/89/58 58/88/58 85/90/58 59/91/58
f 58/88/59 18/87/59 60/92/59 85/90/59
f 85/90/60 60/92/60 14/73/60 50/70/60
f 59/91/61 85/90/61 50/70/61 13/69/61
f 15/77/62 53/79/62 87/93/62 49/72/62
f 53/79/63 19/83/63 56/85/63 87/93/63
f 87/93/64 56/85/64 17/89/64 59/91/64
f 49/72/65 87/93/65 59/91/65 13/69/65
f 16/75/66 51/74/66 86/94/66 66/95/66
f 51/74/67 14/73/67 65/96/67 86/94/67
f 86/97/68 65/98/68 21/99/68 61/100/68
f 66/101/69 86/97/69 61/100/69 22/102/69
f 23/103/70 62/104/70 87/105/70 63/106/70
f 62/104/71 22/102/71 61/100/71 87/107/71
f 87/107/72 61/100/72 21/99/72 64/108/72
f 63/106/73 87/105/73 64/108/73 24/109/73
f 14/73/74 60/92/74 88/110/74 65/96/74
f 60/92/75 18/87/75 67/111/75 88/110/75
f 88/112/76 67/113/76 24/109/76 64/108/76
f 65/98/77 88/112/77 64/108/77 21/99/77
f 20/81/78 54/80/78 89/114/78 68/115/78
f 54/80/79 16/75/79 66/95/79 89/114/79
f 89/116/80 66/101/80 22/102/80 62/104/80
f 68/117/81 89/116/81 62/104/81 23/103/81
f 18/87/82 57/86/82 90/118/82 67/111/82
f 57/86/83 20/81/83 68/115/83 90/118/83
f 90/119/84 68/117/84 23/103/84 63/106/84
f 67/113/85 90/119/85 63/106/85 24/109/85
